<?xml version="1.0" encoding="UTF-8" standalone="no"?><svg xmlns="http://www.w3.org/2000/svg" xmlns:xlink="http://www.w3.org/1999/xlink" clip-rule="evenodd" stroke-miterlimit="4.00" viewBox="0 0 650 36"><desc>SVG generated by Keynote</desc><defs></defs><g transform="matrix(1.00, 0.00, -0.00, -1.00, 0.0, 36.0)"><text xml:space="preserve" font-family="VarelaRound" font-size="36.0" fill="#FEFFFF" transform="matrix(1.00, 0.00, -0.00, -1.00, -1.0, 8.0)">—</text><text xml:space="preserve" font-family="VarelaRound" font-size="36.0" fill="#FEFFFF" transform="matrix(1.00, 0.00, -0.00, -1.00, 31.1, 8.0)"> </text><text xml:space="preserve" font-family="VarelaRound" font-size="36.0" fill="#FEFFFF" transform="matrix(1.00, 0.00, -0.00, -1.00, 40.4, 8.0)">K</text><text xml:space="preserve" font-family="VarelaRound" font-size="36.0" fill="#FEFFFF" transform="matrix(1.00, 0.00, -0.00, -1.00, 64.6, 8.0)">a</text><text xml:space="preserve" font-family="VarelaRound" font-size="36.0" fill="#FEFFFF" transform="matrix(1.00, 0.00, -0.00, -1.00, 84.4, 8.0)">t</text><text xml:space="preserve" font-family="VarelaRound" font-size="36.0" fill="#FEFFFF" transform="matrix(1.00, 0.00, -0.00, -1.00, 98.2, 8.0)">h</text><text xml:space="preserve" font-family="VarelaRound" font-size="36.0" fill="#FEFFFF" transform="matrix(1.00, 0.00, -0.00, -1.00, 120.1, 8.0)">l</text><text xml:space="preserve" font-family="VarelaRound" font-size="36.0" fill="#FEFFFF" transform="matrix(1.00, 0.00, -0.00, -1.00, 129.6, 8.0)">e</text><text xml:space="preserve" font-family="VarelaRound" font-size="36.0" fill="#FEFFFF" transform="matrix(1.00, 0.00, -0.00, -1.00, 150.2, 8.0)">e</text><text xml:space="preserve" font-family="VarelaRound" font-size="36.0" fill="#FEFFFF" transform="matrix(1.00, 0.00, -0.00, -1.00, 170.7, 8.0)">n</text><text xml:space="preserve" font-family="VarelaRound" font-size="36.0" fill="#FEFFFF" transform="matrix(1.00, 0.00, -0.00, -1.00, 192.6, 8.0)"> </text><text xml:space="preserve" font-family="VarelaRound" font-size="36.0" fill="#FEFFFF" transform="matrix(1.00, 0.00, -0.00, -1.00, 202.0, 8.0)">W</text><text xml:space="preserve" font-family="VarelaRound" font-size="36.0" fill="#FEFFFF" transform="matrix(1.00, 0.00, -0.00, -1.00, 238.2, 8.0)">a</text><text xml:space="preserve" font-family="VarelaRound" font-size="36.0" fill="#FEFFFF" transform="matrix(1.00, 0.00, -0.00, -1.00, 258.2, 8.0)">l</text><text xml:space="preserve" font-family="VarelaRound" font-size="36.0" fill="#FEFFFF" transform="matrix(1.00, 0.00, -0.00, -1.00, 267.7, 8.0)">s</text><text xml:space="preserve" font-family="VarelaRound" font-size="36.0" fill="#FEFFFF" transform="matrix(1.00, 0.00, -0.00, -1.00, 285.0, 8.0)">h</text><text xml:space="preserve" font-family="VarelaRound" font-size="36.0" fill="#FEFFFF" transform="matrix(1.00, 0.00, -0.00, -1.00, 306.9, 8.0)">,</text><text xml:space="preserve" font-family="VarelaRound" font-size="36.0" fill="#FEFFFF" transform="matrix(1.00, 0.00, -0.00, -1.00, 316.3, 8.0)"> </text><text xml:space="preserve" font-family="VarelaRound" font-size="36.0" fill="#FEFFFF" transform="matrix(1.00, 0.00, -0.00, -1.00, 325.7, 8.0)">P</text><text xml:space="preserve" font-family="VarelaRound" font-size="36.0" fill="#FEFFFF" transform="matrix(1.00, 0.00, -0.00, -1.00, 349.5, 8.0)">r</text><text xml:space="preserve" font-family="VarelaRound" font-size="36.0" fill="#FEFFFF" transform="matrix(1.00, 0.00, -0.00, -1.00, 363.4, 8.0)">e</text><text xml:space="preserve" font-family="VarelaRound" font-size="36.0" fill="#FEFFFF" transform="matrix(1.00, 0.00, -0.00, -1.00, 383.9, 8.0)">s</text><text xml:space="preserve" font-family="VarelaRound" font-size="36.0" fill="#FEFFFF" transform="matrix(1.00, 0.00, -0.00, -1.00, 401.2, 8.0)">i</text><text xml:space="preserve" font-family="VarelaRound" font-size="36.0" fill="#FEFFFF" transform="matrix(1.00, 0.00, -0.00, -1.00, 410.4, 8.0)">d</text><text xml:space="preserve" font-family="VarelaRound" font-size="36.0" fill="#FEFFFF" transform="matrix(1.00, 0.00, -0.00, -1.00, 433.2, 8.0)">e</text><text xml:space="preserve" font-family="VarelaRound" font-size="36.0" fill="#FEFFFF" transform="matrix(1.00, 0.00, -0.00, -1.00, 453.7, 8.0)">n</text><text xml:space="preserve" font-family="VarelaRound" font-size="36.0" fill="#FEFFFF" transform="matrix(1.00, 0.00, -0.00, -1.00, 475.5, 8.0)">t</text><text xml:space="preserve" font-family="VarelaRound" font-size="36.0" fill="#FEFFFF" transform="matrix(1.00, 0.00, -0.00, -1.00, 489.3, 8.0)"> </text><text xml:space="preserve" font-family="VarelaRound" font-size="36.0" fill="#FEFFFF" transform="matrix(1.00, 0.00, -0.00, -1.00, 498.6, 8.0)">a</text><text xml:space="preserve" font-family="VarelaRound" font-size="36.0" fill="#FEFFFF" transform="matrix(1.00, 0.00, -0.00, -1.00, 518.6, 8.0)">n</text><text xml:space="preserve" font-family="VarelaRound" font-size="36.0" fill="#FEFFFF" transform="matrix(1.00, 0.00, -0.00, -1.00, 540.5, 8.0)">d</text><text xml:space="preserve" font-family="VarelaRound" font-size="36.0" fill="#FEFFFF" transform="matrix(1.00, 0.00, -0.00, -1.00, 563.3, 8.0)"> </text><text xml:space="preserve" font-family="VarelaRound" font-size="36.0" fill="#FEFFFF" transform="matrix(1.00, 0.00, -0.00, -1.00, 572.6, 8.0)">C</text><text xml:space="preserve" font-family="VarelaRound" font-size="36.0" fill="#FEFFFF" transform="matrix(1.00, 0.00, -0.00, -1.00, 597.8, 8.0)">E</text><text xml:space="preserve" font-family="VarelaRound" font-size="36.0" fill="#FEFFFF" transform="matrix(1.00, 0.00, -0.00, -1.00, 620.5, 8.0)">O</text></g></svg>