<?xml version="1.0" encoding="UTF-8" standalone="no"?><svg xmlns="http://www.w3.org/2000/svg" xmlns:xlink="http://www.w3.org/1999/xlink" clip-rule="evenodd" stroke-miterlimit="4.00" viewBox="0 0 836 48"><desc>SVG generated by Keynote</desc><defs></defs><g transform="matrix(1.00, 0.00, -0.00, -1.00, 0.0, 48.0)"><text xml:space="preserve" font-family="VarelaRound" font-size="44.0" fill="#FEFFFF" transform="matrix(1.00, 0.00, -0.00, -1.00, -1.0, 13.0)">o</text><text xml:space="preserve" font-family="VarelaRound" font-size="44.0" fill="#FEFFFF" transform="matrix(1.00, 0.00, -0.00, -1.00, 25.8, 13.0)">r</text><text xml:space="preserve" font-family="VarelaRound" font-size="44.0" fill="#FEFFFF" transform="matrix(1.00, 0.00, -0.00, -1.00, 42.8, 13.0)">g</text><text xml:space="preserve" font-family="VarelaRound" font-size="44.0" fill="#FEFFFF" transform="matrix(1.00, 0.00, -0.00, -1.00, 70.5, 13.0)">a</text><text xml:space="preserve" font-family="VarelaRound" font-size="44.0" fill="#FEFFFF" transform="matrix(1.00, 0.00, -0.00, -1.00, 95.0, 13.0)">n</text><text xml:space="preserve" font-family="VarelaRound" font-size="44.0" fill="#FEFFFF" transform="matrix(1.00, 0.00, -0.00, -1.00, 121.8, 13.0)">i</text><text xml:space="preserve" font-family="VarelaRound" font-size="44.0" fill="#FEFFFF" transform="matrix(1.00, 0.00, -0.00, -1.00, 133.1, 13.0)">z</text><text xml:space="preserve" font-family="VarelaRound" font-size="44.0" fill="#FEFFFF" transform="matrix(1.00, 0.00, -0.00, -1.00, 155.0, 13.0)">a</text><text xml:space="preserve" font-family="VarelaRound" font-size="44.0" fill="#FEFFFF" transform="matrix(1.00, 0.00, -0.00, -1.00, 179.2, 13.0)">t</text><text xml:space="preserve" font-family="VarelaRound" font-size="44.0" fill="#FEFFFF" transform="matrix(1.00, 0.00, -0.00, -1.00, 196.1, 13.0)">i</text><text xml:space="preserve" font-family="VarelaRound" font-size="44.0" fill="#FEFFFF" transform="matrix(1.00, 0.00, -0.00, -1.00, 207.4, 13.0)">o</text><text xml:space="preserve" font-family="VarelaRound" font-size="44.0" fill="#FEFFFF" transform="matrix(1.00, 0.00, -0.00, -1.00, 234.2, 13.0)">n</text><text xml:space="preserve" font-family="VarelaRound" font-size="44.0" fill="#FEFFFF" transform="matrix(1.00, 0.00, -0.00, -1.00, 261.0, 13.0)"> </text><text xml:space="preserve" font-family="VarelaRound" font-size="44.0" fill="#FEFFFF" transform="matrix(1.00, 0.00, -0.00, -1.00, 272.4, 13.0)">i</text><text xml:space="preserve" font-family="VarelaRound" font-size="44.0" fill="#FEFFFF" transform="matrix(1.00, 0.00, -0.00, -1.00, 283.7, 13.0)">f</text><text xml:space="preserve" font-family="VarelaRound" font-size="44.0" fill="#FEFFFF" transform="matrix(1.00, 0.00, -0.00, -1.00, 300.4, 13.0)"> </text><text xml:space="preserve" font-family="VarelaRound" font-size="44.0" fill="#FEFFFF" transform="matrix(1.00, 0.00, -0.00, -1.00, 311.9, 13.0)">y</text><text xml:space="preserve" font-family="VarelaRound" font-size="44.0" fill="#FEFFFF" transform="matrix(1.00, 0.00, -0.00, -1.00, 335.1, 13.0)">o</text><text xml:space="preserve" font-family="VarelaRound" font-size="44.0" fill="#FEFFFF" transform="matrix(1.00, 0.00, -0.00, -1.00, 361.9, 13.0)">u</text><text xml:space="preserve" font-family="VarelaRound" font-size="44.0" fill="#FEFFFF" transform="matrix(1.00, 0.00, -0.00, -1.00, 388.7, 13.0)"> </text><text xml:space="preserve" font-family="VarelaRound" font-size="44.0" fill="#FEFFFF" transform="matrix(1.00, 0.00, -0.00, -1.00, 400.1, 13.0)">h</text><text xml:space="preserve" font-family="VarelaRound" font-size="44.0" fill="#FEFFFF" transform="matrix(1.00, 0.00, -0.00, -1.00, 426.9, 13.0)">a</text><text xml:space="preserve" font-family="VarelaRound" font-size="44.0" fill="#FEFFFF" transform="matrix(1.00, 0.00, -0.00, -1.00, 450.9, 13.0)">v</text><text xml:space="preserve" font-family="VarelaRound" font-size="44.0" fill="#FEFFFF" transform="matrix(1.00, 0.00, -0.00, -1.00, 473.9, 13.0)">e</text><text xml:space="preserve" font-family="VarelaRound" font-size="44.0" fill="#FEFFFF" transform="matrix(1.00, 0.00, -0.00, -1.00, 499.0, 13.0)"> </text><text xml:space="preserve" font-family="VarelaRound" font-size="44.0" fill="#FEFFFF" transform="matrix(1.00, 0.00, -0.00, -1.00, 510.5, 13.0)">d</text><text xml:space="preserve" font-family="VarelaRound" font-size="44.0" fill="#FEFFFF" transform="matrix(1.00, 0.00, -0.00, -1.00, 538.2, 13.0)">a</text><text xml:space="preserve" font-family="VarelaRound" font-size="44.0" fill="#FEFFFF" transform="matrix(1.00, 0.00, -0.00, -1.00, 562.4, 13.0)">t</text><text xml:space="preserve" font-family="VarelaRound" font-size="44.0" fill="#FEFFFF" transform="matrix(1.00, 0.00, -0.00, -1.00, 579.3, 13.0)">a</text><text xml:space="preserve" font-family="VarelaRound" font-size="44.0" fill="#FEFFFF" transform="matrix(1.00, 0.00, -0.00, -1.00, 603.7, 13.0)"> </text><text xml:space="preserve" font-family="VarelaRound" font-size="44.0" fill="#FEFFFF" transform="matrix(1.00, 0.00, -0.00, -1.00, 615.2, 13.0)">t</text><text xml:space="preserve" font-family="VarelaRound" font-size="44.0" fill="#FEFFFF" transform="matrix(1.00, 0.00, -0.00, -1.00, 632.1, 13.0)">o</text><text xml:space="preserve" font-family="VarelaRound" font-size="44.0" fill="#FEFFFF" transform="matrix(1.00, 0.00, -0.00, -1.00, 658.8, 13.0)"> </text><text xml:space="preserve" font-family="VarelaRound" font-size="44.0" fill="#FEFFFF" transform="matrix(1.00, 0.00, -0.00, -1.00, 670.3, 13.0)">s</text><text xml:space="preserve" font-family="VarelaRound" font-size="44.0" fill="#FEFFFF" transform="matrix(1.00, 0.00, -0.00, -1.00, 691.4, 13.0)">u</text><text xml:space="preserve" font-family="VarelaRound" font-size="44.0" fill="#FEFFFF" transform="matrix(1.00, 0.00, -0.00, -1.00, 718.2, 13.0)">p</text><text xml:space="preserve" font-family="VarelaRound" font-size="44.0" fill="#FEFFFF" transform="matrix(1.00, 0.00, -0.00, -1.00, 746.0, 13.0)">p</text><text xml:space="preserve" font-family="VarelaRound" font-size="44.0" fill="#FEFFFF" transform="matrix(1.00, 0.00, -0.00, -1.00, 773.8, 13.0)">o</text><text xml:space="preserve" font-family="VarelaRound" font-size="44.0" fill="#FEFFFF" transform="matrix(1.00, 0.00, -0.00, -1.00, 800.5, 13.0)">r</text><text xml:space="preserve" font-family="VarelaRound" font-size="44.0" fill="#FEFFFF" transform="matrix(1.00, 0.00, -0.00, -1.00, 817.5, 13.0)">t</text></g></svg>