<?xml version="1.0" encoding="UTF-8" standalone="no"?><svg xmlns="http://www.w3.org/2000/svg" xmlns:xlink="http://www.w3.org/1999/xlink" clip-rule="evenodd" stroke-miterlimit="4.00" viewBox="0 0 760 47"><desc>SVG generated by Keynote</desc><defs></defs><g transform="matrix(1.00, 0.00, -0.00, -1.00, 0.0, 47.0)"><text xml:space="preserve" font-family="VarelaRound" font-size="44.0" fill="#FEFFFF" transform="matrix(1.00, 0.00, -0.00, -1.00, -1.0, 12.0)">“</text><text xml:space="preserve" font-family="VarelaRound" font-size="44.0" fill="#FEFFFF" transform="matrix(1.00, 0.00, -0.00, -1.00, 18.2, 12.0)">O</text><text xml:space="preserve" font-family="VarelaRound" font-size="44.0" fill="#FEFFFF" transform="matrix(1.00, 0.00, -0.00, -1.00, 53.5, 12.0)">n</text><text xml:space="preserve" font-family="VarelaRound" font-size="44.0" fill="#FEFFFF" transform="matrix(1.00, 0.00, -0.00, -1.00, 80.3, 12.0)">c</text><text xml:space="preserve" font-family="VarelaRound" font-size="44.0" fill="#FEFFFF" transform="matrix(1.00, 0.00, -0.00, -1.00, 103.7, 12.0)">e</text><text xml:space="preserve" font-family="VarelaRound" font-size="44.0" fill="#FEFFFF" transform="matrix(1.00, 0.00, -0.00, -1.00, 128.8, 12.0)"> </text><text xml:space="preserve" font-family="VarelaRound" font-size="44.0" fill="#FEFFFF" transform="matrix(1.00, 0.00, -0.00, -1.00, 140.2, 12.0)">y</text><text xml:space="preserve" font-family="VarelaRound" font-size="44.0" fill="#FEFFFF" transform="matrix(1.00, 0.00, -0.00, -1.00, 163.5, 12.0)">o</text><text xml:space="preserve" font-family="VarelaRound" font-size="44.0" fill="#FEFFFF" transform="matrix(1.00, 0.00, -0.00, -1.00, 190.2, 12.0)">u</text><text xml:space="preserve" font-family="VarelaRound" font-size="44.0" fill="#FEFFFF" transform="matrix(1.00, 0.00, -0.00, -1.00, 217.1, 12.0)"> </text><text xml:space="preserve" font-family="VarelaRound" font-size="44.0" fill="#FEFFFF" transform="matrix(1.00, 0.00, -0.00, -1.00, 228.5, 12.0)">h</text><text xml:space="preserve" font-family="VarelaRound" font-size="44.0" fill="#FEFFFF" transform="matrix(1.00, 0.00, -0.00, -1.00, 255.3, 12.0)">a</text><text xml:space="preserve" font-family="VarelaRound" font-size="44.0" fill="#FEFFFF" transform="matrix(1.00, 0.00, -0.00, -1.00, 279.3, 12.0)">v</text><text xml:space="preserve" font-family="VarelaRound" font-size="44.0" fill="#FEFFFF" transform="matrix(1.00, 0.00, -0.00, -1.00, 302.3, 12.0)">e</text><text xml:space="preserve" font-family="VarelaRound" font-size="44.0" fill="#FEFFFF" transform="matrix(1.00, 0.00, -0.00, -1.00, 327.4, 12.0)"> </text><text xml:space="preserve" font-family="VarelaRound" font-size="44.0" fill="#FEFFFF" transform="matrix(1.00, 0.00, -0.00, -1.00, 338.8, 12.0)">t</text><text xml:space="preserve" font-family="VarelaRound" font-size="44.0" fill="#FEFFFF" transform="matrix(1.00, 0.00, -0.00, -1.00, 355.7, 12.0)">h</text><text xml:space="preserve" font-family="VarelaRound" font-size="44.0" fill="#FEFFFF" transform="matrix(1.00, 0.00, -0.00, -1.00, 382.5, 12.0)">e</text><text xml:space="preserve" font-family="VarelaRound" font-size="44.0" fill="#FEFFFF" transform="matrix(1.00, 0.00, -0.00, -1.00, 407.6, 12.0)"> </text><text xml:space="preserve" font-family="VarelaRound" font-size="44.0" fill="#FEFFFF" transform="matrix(1.00, 0.00, -0.00, -1.00, 419.0, 12.0)">m</text><text xml:space="preserve" font-family="VarelaRound" font-size="44.0" fill="#FEFFFF" transform="matrix(1.00, 0.00, -0.00, -1.00, 459.5, 12.0)">e</text><text xml:space="preserve" font-family="VarelaRound" font-size="44.0" fill="#FEFFFF" transform="matrix(1.00, 0.00, -0.00, -1.00, 484.5, 12.0)">t</text><text xml:space="preserve" font-family="VarelaRound" font-size="44.0" fill="#FEFFFF" transform="matrix(1.00, 0.00, -0.00, -1.00, 501.4, 12.0)">r</text><text xml:space="preserve" font-family="VarelaRound" font-size="44.0" fill="#FEFFFF" transform="matrix(1.00, 0.00, -0.00, -1.00, 518.5, 12.0)">i</text><text xml:space="preserve" font-family="VarelaRound" font-size="44.0" fill="#FEFFFF" transform="matrix(1.00, 0.00, -0.00, -1.00, 529.8, 12.0)">c</text><text xml:space="preserve" font-family="VarelaRound" font-size="44.0" fill="#FEFFFF" transform="matrix(1.00, 0.00, -0.00, -1.00, 553.4, 12.0)">s</text><text xml:space="preserve" font-family="VarelaRound" font-size="44.0" fill="#FEFFFF" transform="matrix(1.00, 0.00, -0.00, -1.00, 574.5, 12.0)">,</text><text xml:space="preserve" font-family="VarelaRound" font-size="44.0" fill="#FEFFFF" transform="matrix(1.00, 0.00, -0.00, -1.00, 585.9, 12.0)"> </text><text xml:space="preserve" font-family="VarelaRound" font-size="44.0" fill="#FEFFFF" transform="matrix(1.00, 0.00, -0.00, -1.00, 597.4, 12.0)">y</text><text xml:space="preserve" font-family="VarelaRound" font-size="44.0" fill="#FEFFFF" transform="matrix(1.00, 0.00, -0.00, -1.00, 620.6, 12.0)">o</text><text xml:space="preserve" font-family="VarelaRound" font-size="44.0" fill="#FEFFFF" transform="matrix(1.00, 0.00, -0.00, -1.00, 647.3, 12.0)">u</text><text xml:space="preserve" font-family="VarelaRound" font-size="44.0" fill="#FEFFFF" transform="matrix(1.00, 0.00, -0.00, -1.00, 674.2, 12.0)"> </text><text xml:space="preserve" font-family="VarelaRound" font-size="44.0" fill="#FEFFFF" transform="matrix(1.00, 0.00, -0.00, -1.00, 685.6, 12.0)">c</text><text xml:space="preserve" font-family="VarelaRound" font-size="44.0" fill="#FEFFFF" transform="matrix(1.00, 0.00, -0.00, -1.00, 709.2, 12.0)">a</text><text xml:space="preserve" font-family="VarelaRound" font-size="44.0" fill="#FEFFFF" transform="matrix(1.00, 0.00, -0.00, -1.00, 733.6, 12.0)">n</text></g></svg>