<?xml version="1.0" encoding="UTF-8" standalone="no"?><svg xmlns="http://www.w3.org/2000/svg" xmlns:xlink="http://www.w3.org/1999/xlink" clip-rule="evenodd" stroke-miterlimit="4.00" viewBox="0 0 527 43"><desc>SVG generated by Keynote</desc><defs></defs><g transform="matrix(1.00, 0.00, -0.00, -1.00, 0.0, 43.0)"><text xml:space="preserve" font-family="VarelaRound" font-size="44.0" fill="#FEFFFF" transform="matrix(1.00, 0.00, -0.00, -1.00, -2.0, 9.0)">R</text><text xml:space="preserve" font-family="VarelaRound" font-size="44.0" fill="#FEFFFF" transform="matrix(1.00, 0.00, -0.00, -1.00, 29.3, 9.0)">e</text><text xml:space="preserve" font-family="VarelaRound" font-size="44.0" fill="#FEFFFF" transform="matrix(1.00, 0.00, -0.00, -1.00, 54.4, 9.0)">s</text><text xml:space="preserve" font-family="VarelaRound" font-size="44.0" fill="#FEFFFF" transform="matrix(1.00, 0.00, -0.00, -1.00, 75.5, 9.0)">o</text><text xml:space="preserve" font-family="VarelaRound" font-size="44.0" fill="#FEFFFF" transform="matrix(1.00, 0.00, -0.00, -1.00, 102.3, 9.0)">u</text><text xml:space="preserve" font-family="VarelaRound" font-size="44.0" fill="#FEFFFF" transform="matrix(1.00, 0.00, -0.00, -1.00, 129.1, 9.0)">r</text><text xml:space="preserve" font-family="VarelaRound" font-size="44.0" fill="#FEFFFF" transform="matrix(1.00, 0.00, -0.00, -1.00, 146.1, 9.0)">c</text><text xml:space="preserve" font-family="VarelaRound" font-size="44.0" fill="#FEFFFF" transform="matrix(1.00, 0.00, -0.00, -1.00, 169.6, 9.0)">e</text><text xml:space="preserve" font-family="VarelaRound" font-size="44.0" fill="#FEFFFF" transform="matrix(1.00, 0.00, -0.00, -1.00, 194.6, 9.0)">s</text><text xml:space="preserve" font-family="VarelaRound" font-size="44.0" fill="#FEFFFF" transform="matrix(1.00, 0.00, -0.00, -1.00, 215.8, 9.0)">,</text><text xml:space="preserve" font-family="VarelaRound" font-size="44.0" fill="#FEFFFF" transform="matrix(1.00, 0.00, -0.00, -1.00, 227.2, 9.0)"> </text><text xml:space="preserve" font-family="VarelaRound" font-size="44.0" fill="#FEFFFF" transform="matrix(1.00, 0.00, -0.00, -1.00, 238.6, 9.0)">E</text><text xml:space="preserve" font-family="VarelaRound" font-size="44.0" fill="#FEFFFF" transform="matrix(1.00, 0.00, -0.00, -1.00, 266.7, 9.0)">l</text><text xml:space="preserve" font-family="VarelaRound" font-size="44.0" fill="#FEFFFF" transform="matrix(1.00, 0.00, -0.00, -1.00, 278.4, 9.0)">l</text><text xml:space="preserve" font-family="VarelaRound" font-size="44.0" fill="#FEFFFF" transform="matrix(1.00, 0.00, -0.00, -1.00, 290.0, 9.0)">i</text><text xml:space="preserve" font-family="VarelaRound" font-size="44.0" fill="#FEFFFF" transform="matrix(1.00, 0.00, -0.00, -1.00, 301.3, 9.0)">s</text><text xml:space="preserve" font-family="VarelaRound" font-size="44.0" fill="#FEFFFF" transform="matrix(1.00, 0.00, -0.00, -1.00, 322.5, 9.0)"> </text><text xml:space="preserve" font-family="VarelaRound" font-size="44.0" fill="#FEFFFF" transform="matrix(1.00, 0.00, -0.00, -1.00, 333.9, 9.0)">M</text><text xml:space="preserve" font-family="VarelaRound" font-size="44.0" fill="#FEFFFF" transform="matrix(1.00, 0.00, -0.00, -1.00, 375.8, 9.0)">e</text><text xml:space="preserve" font-family="VarelaRound" font-size="44.0" fill="#FEFFFF" transform="matrix(1.00, 0.00, -0.00, -1.00, 400.9, 9.0)">d</text><text xml:space="preserve" font-family="VarelaRound" font-size="44.0" fill="#FEFFFF" transform="matrix(1.00, 0.00, -0.00, -1.00, 428.6, 9.0)">i</text><text xml:space="preserve" font-family="VarelaRound" font-size="44.0" fill="#FEFFFF" transform="matrix(1.00, 0.00, -0.00, -1.00, 439.9, 9.0)">c</text><text xml:space="preserve" font-family="VarelaRound" font-size="44.0" fill="#FEFFFF" transform="matrix(1.00, 0.00, -0.00, -1.00, 463.5, 9.0)">i</text><text xml:space="preserve" font-family="VarelaRound" font-size="44.0" fill="#FEFFFF" transform="matrix(1.00, 0.00, -0.00, -1.00, 474.8, 9.0)">n</text><text xml:space="preserve" font-family="VarelaRound" font-size="44.0" fill="#FEFFFF" transform="matrix(1.00, 0.00, -0.00, -1.00, 501.6, 9.0)">e</text></g></svg>