<?xml version="1.0" encoding="UTF-8" standalone="no"?><svg xmlns="http://www.w3.org/2000/svg" xmlns:xlink="http://www.w3.org/1999/xlink" clip-rule="evenodd" stroke-miterlimit="4.00" viewBox="0 0 1024 768"><desc>SVG generated by Keynote</desc><defs><linearGradient id="gradSh1.0" x1="0.0" y1="0.0" x2="100.0" y2="0.0" gradientUnits="userSpaceOnUse" gradientTransform="matrix(0.00, -7.70, -10.26, 0.00, 512.0, 769.0)"><stop offset="0.00000" stop-color="#EF951A"></stop><stop offset="0.00293" stop-color="#EF941A"></stop><stop offset="1.00000" stop-color="#DE6A10"></stop></linearGradient></defs><g transform="matrix(1.00, 0.00, -0.00, -1.00, 0.0, 768.0)"><g><clipPath id="clip-155"><path d="M 0.0 768.0 L 1024.0 768.0 L 1024.0 0.0 L 0.0 0.0 Z M 0.0 768.0 "></path></clipPath><g clip-path="url(#clip-155)"><path d="M 0.0 768.0 L 1024.0 768.0 L 1024.0 0.0 L 0.0 0.0 Z M 0.0 768.0 " fill="url(#gradSh1.0)"></path></g></g><g opacity="0.50"><g><clipPath id="clip-156"><path d="M 0.0 768.0 L 1024.0 768.0 L 1024.0 0.0 L 0.0 0.0 Z M 0.0 768.0 "></path></clipPath><g clip-path="url(#clip-156)"><g><clipPath id="clip-157"><path d="M 0.0 0.0 L 1024.0 0.0 L 1024.0 768.0 L 0.0 768.0 Z M 0.0 0.0 "></path></clipPath><g clip-path="url(#clip-157)"><image xlink:href="D0B4ADA4322A326BD37460CF58947F72.jpeg" width="1152.00" height="768.00" transform="matrix(1.00, 0.00, -0.00, -1.00, -64.0, 768.0)"></image></g></g></g></g></g><text xml:space="preserve" font-family="VarelaRound" font-size="50.0" fill="#FEFFFF" transform="matrix(1.00, 0.00, -0.00, -1.00, 114.0, 438.0)">P</text><text xml:space="preserve" font-family="VarelaRound" font-size="50.0" fill="#FEFFFF" transform="matrix(1.00, 0.00, -0.00, -1.00, 146.2, 438.0)">a</text><text xml:space="preserve" font-family="VarelaRound" font-size="50.0" fill="#FEFFFF" transform="matrix(1.00, 0.00, -0.00, -1.00, 173.7, 438.0)">t</text><text xml:space="preserve" font-family="VarelaRound" font-size="50.0" fill="#FEFFFF" transform="matrix(1.00, 0.00, -0.00, -1.00, 192.9, 438.0)">h</text><text xml:space="preserve" font-family="VarelaRound" font-size="50.0" fill="#FEFFFF" transform="matrix(1.00, 0.00, -0.00, -1.00, 223.3, 438.0)"> </text><text xml:space="preserve" font-family="VarelaRound" font-size="50.0" fill="#FEFFFF" transform="matrix(1.00, 0.00, -0.00, -1.00, 236.3, 438.0)">t</text><text xml:space="preserve" font-family="VarelaRound" font-size="50.0" fill="#FEFFFF" transform="matrix(1.00, 0.00, -0.00, -1.00, 255.5, 438.0)">o</text><text xml:space="preserve" font-family="VarelaRound" font-size="50.0" fill="#FEFFFF" transform="matrix(1.00, 0.00, -0.00, -1.00, 285.9, 438.0)"> </text><text xml:space="preserve" font-family="VarelaRound" font-size="50.0" fill="#FEFFFF" transform="matrix(1.00, 0.00, -0.00, -1.00, 298.9, 438.0)">t</text><text xml:space="preserve" font-family="VarelaRound" font-size="50.0" fill="#FEFFFF" transform="matrix(1.00, 0.00, -0.00, -1.00, 318.1, 438.0)">h</text><text xml:space="preserve" font-family="VarelaRound" font-size="50.0" fill="#FEFFFF" transform="matrix(1.00, 0.00, -0.00, -1.00, 348.6, 438.0)">r</text><text xml:space="preserve" font-family="VarelaRound" font-size="50.0" fill="#FEFFFF" transform="matrix(1.00, 0.00, -0.00, -1.00, 367.9, 438.0)">i</text><text xml:space="preserve" font-family="VarelaRound" font-size="50.0" fill="#FEFFFF" transform="matrix(1.00, 0.00, -0.00, -1.00, 380.8, 438.0)">v</text><text xml:space="preserve" font-family="VarelaRound" font-size="50.0" fill="#FEFFFF" transform="matrix(1.00, 0.00, -0.00, -1.00, 407.2, 438.0)">i</text><text xml:space="preserve" font-family="VarelaRound" font-size="50.0" fill="#FEFFFF" transform="matrix(1.00, 0.00, -0.00, -1.00, 420.1, 438.0)">n</text><text xml:space="preserve" font-family="VarelaRound" font-size="50.0" fill="#FEFFFF" transform="matrix(1.00, 0.00, -0.00, -1.00, 450.6, 438.0)">g</text><text xml:space="preserve" font-family="VarelaRound" font-size="50.0" fill="#FEFFFF" transform="matrix(1.00, 0.00, -0.00, -1.00, 482.1, 438.0)"> </text><text xml:space="preserve" font-family="VarelaRound" font-size="50.0" fill="#FEFFFF" transform="matrix(1.00, 0.00, -0.00, -1.00, 495.1, 438.0)">i</text><text xml:space="preserve" font-family="VarelaRound" font-size="50.0" fill="#FEFFFF" transform="matrix(1.00, 0.00, -0.00, -1.00, 508.0, 438.0)">n</text><text xml:space="preserve" font-family="VarelaRound" font-size="50.0" fill="#FEFFFF" transform="matrix(1.00, 0.00, -0.00, -1.00, 538.4, 438.0)"> </text><text xml:space="preserve" font-family="VarelaRound" font-size="50.0" fill="#FEFFFF" transform="matrix(1.00, 0.00, -0.00, -1.00, 551.4, 438.0)">t</text><text xml:space="preserve" font-family="VarelaRound" font-size="50.0" fill="#FEFFFF" transform="matrix(1.00, 0.00, -0.00, -1.00, 570.6, 438.0)">h</text><text xml:space="preserve" font-family="VarelaRound" font-size="50.0" fill="#FEFFFF" transform="matrix(1.00, 0.00, -0.00, -1.00, 601.0, 438.0)">i</text><text xml:space="preserve" font-family="VarelaRound" font-size="50.0" fill="#FEFFFF" transform="matrix(1.00, 0.00, -0.00, -1.00, 613.9, 438.0)">s</text><text xml:space="preserve" font-family="VarelaRound" font-size="50.0" fill="#FEFFFF" transform="matrix(1.00, 0.00, -0.00, -1.00, 637.9, 438.0)"> </text><text xml:space="preserve" font-family="VarelaRound" font-size="50.0" fill="#FEFFFF" transform="matrix(1.00, 0.00, -0.00, -1.00, 650.9, 438.0)">“</text><text xml:space="preserve" font-family="VarelaRound" font-size="50.0" fill="#FEFFFF" transform="matrix(1.00, 0.00, -0.00, -1.00, 672.8, 438.0)">m</text><text xml:space="preserve" font-family="VarelaRound" font-size="50.0" fill="#FEFFFF" transform="matrix(1.00, 0.00, -0.00, -1.00, 718.7, 438.0)">o</text><text xml:space="preserve" font-family="VarelaRound" font-size="50.0" fill="#FEFFFF" transform="matrix(1.00, 0.00, -0.00, -1.00, 749.1, 438.0)">r</text><text xml:space="preserve" font-family="VarelaRound" font-size="50.0" fill="#FEFFFF" transform="matrix(1.00, 0.00, -0.00, -1.00, 768.5, 438.0)">e</text><text xml:space="preserve" font-family="VarelaRound" font-size="50.0" fill="#FEFFFF" transform="matrix(1.00, 0.00, -0.00, -1.00, 797.0, 438.0)"> </text><text xml:space="preserve" font-family="VarelaRound" font-size="50.0" fill="#FEFFFF" transform="matrix(1.00, 0.00, -0.00, -1.00, 810.0, 438.0)">w</text><text xml:space="preserve" font-family="VarelaRound" font-size="50.0" fill="#FEFFFF" transform="matrix(1.00, 0.00, -0.00, -1.00, 849.2, 438.0)">i</text><text xml:space="preserve" font-family="VarelaRound" font-size="50.0" fill="#FEFFFF" transform="matrix(1.00, 0.00, -0.00, -1.00, 862.1, 438.0)">t</text><text xml:space="preserve" font-family="VarelaRound" font-size="50.0" fill="#FEFFFF" transform="matrix(1.00, 0.00, -0.00, -1.00, 881.3, 438.0)">h</text><text xml:space="preserve" font-family="VarelaRound" font-size="50.0" fill="#FEFFFF" transform="matrix(1.00, 0.00, -0.00, -1.00, 911.7, 438.0)"> </text><text xml:space="preserve" font-family="VarelaRound" font-size="50.0" fill="#FEFFFF" transform="matrix(1.00, 0.00, -0.00, -1.00, 117.0, 378.0)">l</text><text xml:space="preserve" font-family="VarelaRound" font-size="50.0" fill="#FEFFFF" transform="matrix(1.00, 0.00, -0.00, -1.00, 130.2, 378.0)">e</text><text xml:space="preserve" font-family="VarelaRound" font-size="50.0" fill="#FEFFFF" transform="matrix(1.00, 0.00, -0.00, -1.00, 158.8, 378.0)">s</text><text xml:space="preserve" font-family="VarelaRound" font-size="50.0" fill="#FEFFFF" transform="matrix(1.00, 0.00, -0.00, -1.00, 182.8, 378.0)">s</text><text xml:space="preserve" font-family="VarelaRound" font-size="50.0" fill="#FEFFFF" transform="matrix(1.00, 0.00, -0.00, -1.00, 206.8, 378.0)">”</text><text xml:space="preserve" font-family="VarelaRound" font-size="50.0" fill="#FEFFFF" transform="matrix(1.00, 0.00, -0.00, -1.00, 227.8, 378.0)"> </text><text xml:space="preserve" font-family="VarelaRound" font-size="50.0" fill="#FEFFFF" transform="matrix(1.00, 0.00, -0.00, -1.00, 240.8, 378.0)">w</text><text xml:space="preserve" font-family="VarelaRound" font-size="50.0" fill="#FEFFFF" transform="matrix(1.00, 0.00, -0.00, -1.00, 280.0, 378.0)">o</text><text xml:space="preserve" font-family="VarelaRound" font-size="50.0" fill="#FEFFFF" transform="matrix(1.00, 0.00, -0.00, -1.00, 310.4, 378.0)">r</text><text xml:space="preserve" font-family="VarelaRound" font-size="50.0" fill="#FEFFFF" transform="matrix(1.00, 0.00, -0.00, -1.00, 329.8, 378.0)">l</text><text xml:space="preserve" font-family="VarelaRound" font-size="50.0" fill="#FEFFFF" transform="matrix(1.00, 0.00, -0.00, -1.00, 343.0, 378.0)">d</text><text xml:space="preserve" font-family="VarelaRound" font-size="50.0" fill="#FEFFFF" transform="matrix(1.00, 0.00, -0.00, -1.00, 374.6, 378.0)"> </text><text xml:space="preserve" font-family="VarelaRound" font-size="50.0" fill="#FEFFFF" transform="matrix(1.00, 0.00, -0.00, -1.00, 387.6, 378.0)">i</text><text xml:space="preserve" font-family="VarelaRound" font-size="50.0" fill="#FEFFFF" transform="matrix(1.00, 0.00, -0.00, -1.00, 400.4, 378.0)">s</text><text xml:space="preserve" font-family="VarelaRound" font-size="50.0" fill="#FEFFFF" transform="matrix(1.00, 0.00, -0.00, -1.00, 424.4, 378.0)"> </text><text xml:space="preserve" font-family="VarelaRound" font-size="50.0" fill="#FEFFFF" transform="matrix(1.00, 0.00, -0.00, -1.00, 437.4, 378.0)">b</text><text xml:space="preserve" font-family="VarelaRound" font-size="50.0" fill="#FEFFFF" transform="matrix(1.00, 0.00, -0.00, -1.00, 468.7, 378.0)">y</text><text xml:space="preserve" font-family="VarelaRound" font-size="50.0" fill="#FEFFFF" transform="matrix(1.00, 0.00, -0.00, -1.00, 495.4, 378.0)"> </text><text xml:space="preserve" font-family="VarelaRound" font-size="50.0" fill="#FEFFFF" transform="matrix(1.00, 0.00, -0.00, -1.00, 508.4, 378.0)">m</text><text xml:space="preserve" font-family="VarelaRound" font-size="50.0" fill="#FEFFFF" transform="matrix(1.00, 0.00, -0.00, -1.00, 554.3, 378.0)">a</text><text xml:space="preserve" font-family="VarelaRound" font-size="50.0" fill="#FEFFFF" transform="matrix(1.00, 0.00, -0.00, -1.00, 582.0, 378.0)">k</text><text xml:space="preserve" font-family="VarelaRound" font-size="50.0" fill="#FEFFFF" transform="matrix(1.00, 0.00, -0.00, -1.00, 609.4, 378.0)">i</text><text xml:space="preserve" font-family="VarelaRound" font-size="50.0" fill="#FEFFFF" transform="matrix(1.00, 0.00, -0.00, -1.00, 622.2, 378.0)">n</text><text xml:space="preserve" font-family="VarelaRound" font-size="50.0" fill="#FEFFFF" transform="matrix(1.00, 0.00, -0.00, -1.00, 652.7, 378.0)">g</text><text xml:space="preserve" font-family="VarelaRound" font-size="50.0" fill="#FEFFFF" transform="matrix(1.00, 0.00, -0.00, -1.00, 684.2, 378.0)"> </text><text xml:space="preserve" font-family="VarelaRound" font-size="50.0" fill="#FEFFFF" transform="matrix(1.00, 0.00, -0.00, -1.00, 697.2, 378.0)">t</text><text xml:space="preserve" font-family="VarelaRound" font-size="50.0" fill="#FEFFFF" transform="matrix(1.00, 0.00, -0.00, -1.00, 716.4, 378.0)">h</text><text xml:space="preserve" font-family="VarelaRound" font-size="50.0" fill="#FEFFFF" transform="matrix(1.00, 0.00, -0.00, -1.00, 746.9, 378.0)">e</text><text xml:space="preserve" font-family="VarelaRound" font-size="50.0" fill="#FEFFFF" transform="matrix(1.00, 0.00, -0.00, -1.00, 775.4, 378.0)"> </text><text xml:space="preserve" font-family="VarelaRound" font-size="50.0" fill="#FEFFFF" transform="matrix(1.00, 0.00, -0.00, -1.00, 788.4, 378.0)">m</text><text xml:space="preserve" font-family="VarelaRound" font-size="50.0" fill="#FEFFFF" transform="matrix(1.00, 0.00, -0.00, -1.00, 834.3, 378.0)">o</text><text xml:space="preserve" font-family="VarelaRound" font-size="50.0" fill="#FEFFFF" transform="matrix(1.00, 0.00, -0.00, -1.00, 864.7, 378.0)">s</text><text xml:space="preserve" font-family="VarelaRound" font-size="50.0" fill="#FEFFFF" transform="matrix(1.00, 0.00, -0.00, -1.00, 888.5, 378.0)">t</text><text xml:space="preserve" font-family="VarelaRound" font-size="50.0" fill="#FEFFFF" transform="matrix(1.00, 0.00, -0.00, -1.00, 907.7, 378.0)"> </text><text xml:space="preserve" font-family="VarelaRound" font-size="50.0" fill="#FEFFFF" transform="matrix(1.00, 0.00, -0.00, -1.00, 340.0, 318.0)">o</text><text xml:space="preserve" font-family="VarelaRound" font-size="50.0" fill="#FEFFFF" transform="matrix(1.00, 0.00, -0.00, -1.00, 370.1, 318.0)">f</text><text xml:space="preserve" font-family="VarelaRound" font-size="50.0" fill="#FEFFFF" transform="matrix(1.00, 0.00, -0.00, -1.00, 389.1, 318.0)"> </text><text xml:space="preserve" font-family="VarelaRound" font-size="50.0" fill="#FEFFFF" transform="matrix(1.00, 0.00, -0.00, -1.00, 402.1, 318.0)">y</text><text xml:space="preserve" font-family="VarelaRound" font-size="50.0" fill="#FEFFFF" transform="matrix(1.00, 0.00, -0.00, -1.00, 428.6, 318.0)">o</text><text xml:space="preserve" font-family="VarelaRound" font-size="50.0" fill="#FEFFFF" transform="matrix(1.00, 0.00, -0.00, -1.00, 459.0, 318.0)">u</text><text xml:space="preserve" font-family="VarelaRound" font-size="50.0" fill="#FEFFFF" transform="matrix(1.00, 0.00, -0.00, -1.00, 489.5, 318.0)">r</text><text xml:space="preserve" font-family="VarelaRound" font-size="50.0" fill="#FEFFFF" transform="matrix(1.00, 0.00, -0.00, -1.00, 508.8, 318.0)"> </text><text xml:space="preserve" font-family="VarelaRound" font-size="50.0" fill="#FEFFFF" transform="matrix(1.00, 0.00, -0.00, -1.00, 521.8, 318.0)">p</text><text xml:space="preserve" font-family="VarelaRound" font-size="50.0" fill="#FEFFFF" transform="matrix(1.00, 0.00, -0.00, -1.00, 553.4, 318.0)">e</text><text xml:space="preserve" font-family="VarelaRound" font-size="50.0" fill="#FEFFFF" transform="matrix(1.00, 0.00, -0.00, -1.00, 581.9, 318.0)">o</text><text xml:space="preserve" font-family="VarelaRound" font-size="50.0" fill="#FEFFFF" transform="matrix(1.00, 0.00, -0.00, -1.00, 612.2, 318.0)">p</text><text xml:space="preserve" font-family="VarelaRound" font-size="50.0" fill="#FEFFFF" transform="matrix(1.00, 0.00, -0.00, -1.00, 643.8, 318.0)">l</text><text xml:space="preserve" font-family="VarelaRound" font-size="50.0" fill="#FEFFFF" transform="matrix(1.00, 0.00, -0.00, -1.00, 657.0, 318.0)">e</text><text xml:space="preserve" font-family="VarelaRound" font-size="50.0" fill="#FEFFFF" transform="matrix(1.00, 0.00, -0.00, -1.00, 685.5, 318.0)"> </text><image xlink:href="../../D3C67CC6-5C21-4582-AF44-DD77DF0206F5/assets/61C642E5D8F1136BA2248646667ED960.png" width="233.00" height="35.00" transform="matrix(0.94, 0.00, -0.00, -0.97, 787.0, 52.0)"></image></g></svg>