<?xml version="1.0" encoding="UTF-8" standalone="no"?><svg xmlns="http://www.w3.org/2000/svg" xmlns:xlink="http://www.w3.org/1999/xlink" clip-rule="evenodd" stroke-miterlimit="4.00" viewBox="0 0 961 51"><desc>SVG generated by Keynote</desc><defs></defs><g transform="matrix(1.00, 0.00, -0.00, -1.00, 0.0, 51.0)"><text xml:space="preserve" font-family="VarelaRound" font-size="48.0" fill="#FEFFFF" transform="matrix(1.00, 0.00, -0.00, -1.00, -2.0, 13.0)">h</text><text xml:space="preserve" font-family="VarelaRound" font-size="48.0" fill="#FEFFFF" transform="matrix(1.00, 0.00, -0.00, -1.00, 27.2, 13.0)">o</text><text xml:space="preserve" font-family="VarelaRound" font-size="48.0" fill="#FEFFFF" transform="matrix(1.00, 0.00, -0.00, -1.00, 56.4, 13.0)">s</text><text xml:space="preserve" font-family="VarelaRound" font-size="48.0" fill="#FEFFFF" transform="matrix(1.00, 0.00, -0.00, -1.00, 79.5, 13.0)">p</text><text xml:space="preserve" font-family="VarelaRound" font-size="48.0" fill="#FEFFFF" transform="matrix(1.00, 0.00, -0.00, -1.00, 109.7, 13.0)">i</text><text xml:space="preserve" font-family="VarelaRound" font-size="48.0" fill="#FEFFFF" transform="matrix(1.00, 0.00, -0.00, -1.00, 122.1, 13.0)">t</text><text xml:space="preserve" font-family="VarelaRound" font-size="48.0" fill="#FEFFFF" transform="matrix(1.00, 0.00, -0.00, -1.00, 140.5, 13.0)">a</text><text xml:space="preserve" font-family="VarelaRound" font-size="48.0" fill="#FEFFFF" transform="matrix(1.00, 0.00, -0.00, -1.00, 167.2, 13.0)">l</text><text xml:space="preserve" font-family="VarelaRound" font-size="48.0" fill="#FEFFFF" transform="matrix(1.00, 0.00, -0.00, -1.00, 179.9, 13.0)">s</text><text xml:space="preserve" font-family="VarelaRound" font-size="48.0" fill="#FEFFFF" transform="matrix(1.00, 0.00, -0.00, -1.00, 202.9, 13.0)"> </text><text xml:space="preserve" font-family="VarelaRound" font-size="48.0" fill="#FEFFFF" transform="matrix(1.00, 0.00, -0.00, -1.00, 215.4, 13.0)">n</text><text xml:space="preserve" font-family="VarelaRound" font-size="48.0" fill="#FEFFFF" transform="matrix(1.00, 0.00, -0.00, -1.00, 244.6, 13.0)">e</text><text xml:space="preserve" font-family="VarelaRound" font-size="48.0" fill="#FEFFFF" transform="matrix(1.00, 0.00, -0.00, -1.00, 272.0, 13.0)">e</text><text xml:space="preserve" font-family="VarelaRound" font-size="48.0" fill="#FEFFFF" transform="matrix(1.00, 0.00, -0.00, -1.00, 299.3, 13.0)">d</text><text xml:space="preserve" font-family="VarelaRound" font-size="48.0" fill="#FEFFFF" transform="matrix(1.00, 0.00, -0.00, -1.00, 329.6, 13.0)"> </text><text xml:space="preserve" font-family="VarelaRound" font-size="48.0" fill="#FEFFFF" transform="matrix(1.00, 0.00, -0.00, -1.00, 342.1, 13.0)">t</text><text xml:space="preserve" font-family="VarelaRound" font-size="48.0" fill="#FEFFFF" transform="matrix(1.00, 0.00, -0.00, -1.00, 360.5, 13.0)">h</text><text xml:space="preserve" font-family="VarelaRound" font-size="48.0" fill="#FEFFFF" transform="matrix(1.00, 0.00, -0.00, -1.00, 389.8, 13.0)">e</text><text xml:space="preserve" font-family="VarelaRound" font-size="48.0" fill="#FEFFFF" transform="matrix(1.00, 0.00, -0.00, -1.00, 417.1, 13.0)"> </text><text xml:space="preserve" font-family="VarelaRound" font-size="48.0" fill="#FEFFFF" transform="matrix(1.00, 0.00, -0.00, -1.00, 429.6, 13.0)">m</text><text xml:space="preserve" font-family="VarelaRound" font-size="48.0" fill="#FEFFFF" transform="matrix(1.00, 0.00, -0.00, -1.00, 473.7, 13.0)">o</text><text xml:space="preserve" font-family="VarelaRound" font-size="48.0" fill="#FEFFFF" transform="matrix(1.00, 0.00, -0.00, -1.00, 502.9, 13.0)">s</text><text xml:space="preserve" font-family="VarelaRound" font-size="48.0" fill="#FEFFFF" transform="matrix(1.00, 0.00, -0.00, -1.00, 525.8, 13.0)">t</text><text xml:space="preserve" font-family="VarelaRound" font-size="48.0" fill="#FEFFFF" transform="matrix(1.00, 0.00, -0.00, -1.00, 544.2, 13.0)"> </text><text xml:space="preserve" font-family="VarelaRound" font-size="48.0" fill="#FEFFFF" transform="matrix(1.00, 0.00, -0.00, -1.00, 556.7, 13.0)">u</text><text xml:space="preserve" font-family="VarelaRound" font-size="48.0" fill="#FEFFFF" transform="matrix(1.00, 0.00, -0.00, -1.00, 586.0, 13.0)">s</text><text xml:space="preserve" font-family="VarelaRound" font-size="48.0" fill="#FEFFFF" transform="matrix(1.00, 0.00, -0.00, -1.00, 609.0, 13.0)">e</text><text xml:space="preserve" font-family="VarelaRound" font-size="48.0" fill="#FEFFFF" transform="matrix(1.00, 0.00, -0.00, -1.00, 636.4, 13.0)">f</text><text xml:space="preserve" font-family="VarelaRound" font-size="48.0" fill="#FEFFFF" transform="matrix(1.00, 0.00, -0.00, -1.00, 654.6, 13.0)">u</text><text xml:space="preserve" font-family="VarelaRound" font-size="48.0" fill="#FEFFFF" transform="matrix(1.00, 0.00, -0.00, -1.00, 683.9, 13.0)">l</text><text xml:space="preserve" font-family="VarelaRound" font-size="48.0" fill="#FEFFFF" transform="matrix(1.00, 0.00, -0.00, -1.00, 696.6, 13.0)"> </text><text xml:space="preserve" font-family="VarelaRound" font-size="48.0" fill="#FEFFFF" transform="matrix(1.00, 0.00, -0.00, -1.00, 709.1, 13.0)">d</text><text xml:space="preserve" font-family="VarelaRound" font-size="48.0" fill="#FEFFFF" transform="matrix(1.00, 0.00, -0.00, -1.00, 739.4, 13.0)">a</text><text xml:space="preserve" font-family="VarelaRound" font-size="48.0" fill="#FEFFFF" transform="matrix(1.00, 0.00, -0.00, -1.00, 765.8, 13.0)">t</text><text xml:space="preserve" font-family="VarelaRound" font-size="48.0" fill="#FEFFFF" transform="matrix(1.00, 0.00, -0.00, -1.00, 784.2, 13.0)">a</text><text xml:space="preserve" font-family="VarelaRound" font-size="48.0" fill="#FEFFFF" transform="matrix(1.00, 0.00, -0.00, -1.00, 810.8, 13.0)"> </text><text xml:space="preserve" font-family="VarelaRound" font-size="48.0" fill="#FEFFFF" transform="matrix(1.00, 0.00, -0.00, -1.00, 823.3, 13.0)">v</text><text xml:space="preserve" font-family="VarelaRound" font-size="48.0" fill="#FEFFFF" transform="matrix(1.00, 0.00, -0.00, -1.00, 848.8, 13.0)">i</text><text xml:space="preserve" font-family="VarelaRound" font-size="48.0" fill="#FEFFFF" transform="matrix(1.00, 0.00, -0.00, -1.00, 861.1, 13.0)">e</text><text xml:space="preserve" font-family="VarelaRound" font-size="48.0" fill="#FEFFFF" transform="matrix(1.00, 0.00, -0.00, -1.00, 888.4, 13.0)">w</text><text xml:space="preserve" font-family="VarelaRound" font-size="48.0" fill="#FEFFFF" transform="matrix(1.00, 0.00, -0.00, -1.00, 926.1, 13.0)">s</text><text xml:space="preserve" font-family="VarelaRound" font-size="48.0" fill="#FEFFFF" transform="matrix(1.00, 0.00, -0.00, -1.00, 949.2, 13.0)">.</text></g></svg>