<?xml version="1.0" encoding="UTF-8" standalone="no"?><svg xmlns="http://www.w3.org/2000/svg" xmlns:xlink="http://www.w3.org/1999/xlink" clip-rule="evenodd" stroke-miterlimit="4.00" viewBox="0 0 308 53"><desc>SVG generated by Keynote</desc><defs></defs><g transform="matrix(1.00, 0.00, -0.00, -1.00, 0.0, 53.0)"><text xml:space="preserve" font-family="VarelaRound" font-size="50.0" fill="#FEFFFF" transform="matrix(1.00, 0.00, -0.00, -1.00, 1.0, 13.0)">y</text><text xml:space="preserve" font-family="VarelaRound" font-size="50.0" fill="#FEFFFF" transform="matrix(1.00, 0.00, -0.00, -1.00, 27.4, 13.0)">o</text><text xml:space="preserve" font-family="VarelaRound" font-size="50.0" fill="#FEFFFF" transform="matrix(1.00, 0.00, -0.00, -1.00, 57.8, 13.0)">u</text><text xml:space="preserve" font-family="VarelaRound" font-size="50.0" fill="#FEFFFF" transform="matrix(1.00, 0.00, -0.00, -1.00, 88.3, 13.0)">r</text><text xml:space="preserve" font-family="VarelaRound" font-size="50.0" fill="#FEFFFF" transform="matrix(1.00, 0.00, -0.00, -1.00, 107.7, 13.0)"> </text><text xml:space="preserve" font-family="VarelaRound" font-size="50.0" fill="#FEFFFF" transform="matrix(1.00, 0.00, -0.00, -1.00, 120.7, 13.0)">p</text><text xml:space="preserve" font-family="VarelaRound" font-size="50.0" fill="#FEFFFF" transform="matrix(1.00, 0.00, -0.00, -1.00, 152.2, 13.0)">e</text><text xml:space="preserve" font-family="VarelaRound" font-size="50.0" fill="#FEFFFF" transform="matrix(1.00, 0.00, -0.00, -1.00, 180.7, 13.0)">o</text><text xml:space="preserve" font-family="VarelaRound" font-size="50.0" fill="#FEFFFF" transform="matrix(1.00, 0.00, -0.00, -1.00, 211.1, 13.0)">p</text><text xml:space="preserve" font-family="VarelaRound" font-size="50.0" fill="#FEFFFF" transform="matrix(1.00, 0.00, -0.00, -1.00, 242.7, 13.0)">l</text><text xml:space="preserve" font-family="VarelaRound" font-size="50.0" fill="#FEFFFF" transform="matrix(1.00, 0.00, -0.00, -1.00, 255.9, 13.0)">e</text><text xml:space="preserve" font-family="VarelaRound" font-size="50.0" fill="#FEFFFF" transform="matrix(1.00, 0.00, -0.00, -1.00, 283.6, 13.0)">?</text></g></svg>