<?xml version="1.0" encoding="UTF-8" standalone="no"?><svg xmlns="http://www.w3.org/2000/svg" xmlns:xlink="http://www.w3.org/1999/xlink" clip-rule="evenodd" stroke-miterlimit="4.00" viewBox="0 0 1024 768"><desc>SVG generated by Keynote</desc><defs><linearGradient id="gradSh1.3" x1="0.0" y1="0.0" x2="100.0" y2="0.0" gradientUnits="userSpaceOnUse" gradientTransform="matrix(0.00, -7.70, -10.26, 0.00, 512.0, 769.0)"><stop offset="0.00000" stop-color="#DE6A10"></stop><stop offset="0.00440" stop-color="#DE6A11"></stop><stop offset="0.56158" stop-color="#7F6252"></stop><stop offset="0.56598" stop-color="#7F6253"></stop><stop offset="0.93988" stop-color="#3F5C7E"></stop><stop offset="0.94062" stop-color="#3F5C7F"></stop><stop offset="1.00000" stop-color="#355B86"></stop></linearGradient></defs><g transform="matrix(1.00, 0.00, -0.00, -1.00, 0.0, 768.0)"><g><clipPath id="clip-163"><path d="M 0.0 768.0 L 1024.0 768.0 L 1024.0 0.0 L 0.0 0.0 Z M 0.0 768.0 "></path></clipPath><g clip-path="url(#clip-163)"><path d="M 0.0 768.0 L 1024.0 768.0 L 1024.0 0.0 L 0.0 0.0 Z M 0.0 768.0 " fill="url(#gradSh1.3)"></path></g></g><g opacity="0.32"><g><clipPath id="clip-164"><path d="M 0.0 768.0 L 1024.0 768.0 L 1024.0 0.0 L 0.0 0.0 Z M 0.0 768.0 "></path></clipPath><g clip-path="url(#clip-164)"><g><clipPath id="clip-165"><path d="M 0.0 0.0 L 1024.0 0.0 L 1024.0 768.0 L 0.0 768.0 Z M 0.0 0.0 "></path></clipPath><g clip-path="url(#clip-165)"><image xlink:href="E33523BC12F14A1AA666251BD9D6EF66.png" width="1156.00" height="768.00" transform="matrix(1.00, 0.00, -0.00, -1.00, -66.0, 768.0)"></image></g></g></g></g></g><text xml:space="preserve" font-family="VarelaRound" font-size="50.0" fill="#FEFFFF" transform="matrix(1.00, 0.00, -0.00, -1.00, 88.0, 415.0)">H</text><text xml:space="preserve" font-family="VarelaRound" font-size="50.0" fill="#FEFFFF" transform="matrix(1.00, 0.00, -0.00, -1.00, 125.0, 415.0)">o</text><text xml:space="preserve" font-family="VarelaRound" font-size="50.0" fill="#FEFFFF" transform="matrix(1.00, 0.00, -0.00, -1.00, 155.4, 415.0)">w</text><text xml:space="preserve" font-family="VarelaRound" font-size="50.0" fill="#FEFFFF" transform="matrix(1.00, 0.00, -0.00, -1.00, 194.7, 415.0)"> </text><text xml:space="preserve" font-family="VarelaRound" font-size="50.0" fill="#FEFFFF" transform="matrix(1.00, 0.00, -0.00, -1.00, 207.7, 415.0)">c</text><text xml:space="preserve" font-family="VarelaRound" font-size="50.0" fill="#FEFFFF" transform="matrix(1.00, 0.00, -0.00, -1.00, 234.5, 415.0)">a</text><text xml:space="preserve" font-family="VarelaRound" font-size="50.0" fill="#FEFFFF" transform="matrix(1.00, 0.00, -0.00, -1.00, 262.2, 415.0)">n</text><text xml:space="preserve" font-family="VarelaRound" font-size="50.0" fill="#FEFFFF" transform="matrix(1.00, 0.00, -0.00, -1.00, 292.7, 415.0)"> </text><text xml:space="preserve" font-family="VarelaRound" font-size="50.0" fill="#FEFFFF" transform="matrix(1.00, 0.00, -0.00, -1.00, 305.7, 415.0)">d</text><text xml:space="preserve" font-family="VarelaRound" font-size="50.0" fill="#FEFFFF" transform="matrix(1.00, 0.00, -0.00, -1.00, 337.2, 415.0)">a</text><text xml:space="preserve" font-family="VarelaRound" font-size="50.0" fill="#FEFFFF" transform="matrix(1.00, 0.00, -0.00, -1.00, 364.8, 415.0)">t</text><text xml:space="preserve" font-family="VarelaRound" font-size="50.0" fill="#FEFFFF" transform="matrix(1.00, 0.00, -0.00, -1.00, 383.9, 415.0)">a</text><text xml:space="preserve" font-family="VarelaRound" font-size="50.0" fill="#FEFFFF" transform="matrix(1.00, 0.00, -0.00, -1.00, 411.7, 415.0)"> </text><text xml:space="preserve" font-family="VarelaRound" font-size="50.0" fill="#FEFFFF" transform="matrix(1.00, 0.00, -0.00, -1.00, 424.7, 415.0)">h</text><text xml:space="preserve" font-family="VarelaRound" font-size="50.0" fill="#FEFFFF" transform="matrix(1.00, 0.00, -0.00, -1.00, 455.1, 415.0)">e</text><text xml:space="preserve" font-family="VarelaRound" font-size="50.0" fill="#FEFFFF" transform="matrix(1.00, 0.00, -0.00, -1.00, 483.6, 415.0)">l</text><text xml:space="preserve" font-family="VarelaRound" font-size="50.0" fill="#FEFFFF" transform="matrix(1.00, 0.00, -0.00, -1.00, 496.9, 415.0)">p</text><text xml:space="preserve" font-family="VarelaRound" font-size="50.0" fill="#FEFFFF" transform="matrix(1.00, 0.00, -0.00, -1.00, 528.5, 415.0)"> </text><text xml:space="preserve" font-family="VarelaRound" font-size="50.0" fill="#FEFFFF" transform="matrix(1.00, 0.00, -0.00, -1.00, 541.5, 415.0)">m</text><text xml:space="preserve" font-family="VarelaRound" font-size="50.0" fill="#FEFFFF" transform="matrix(1.00, 0.00, -0.00, -1.00, 587.4, 415.0)">a</text><text xml:space="preserve" font-family="VarelaRound" font-size="50.0" fill="#FEFFFF" transform="matrix(1.00, 0.00, -0.00, -1.00, 615.1, 415.0)">k</text><text xml:space="preserve" font-family="VarelaRound" font-size="50.0" fill="#FEFFFF" transform="matrix(1.00, 0.00, -0.00, -1.00, 642.4, 415.0)">e</text><text xml:space="preserve" font-family="VarelaRound" font-size="50.0" fill="#FEFFFF" transform="matrix(1.00, 0.00, -0.00, -1.00, 670.9, 415.0)"> </text><text xml:space="preserve" font-family="VarelaRound" font-size="50.0" fill="#FEFFFF" transform="matrix(1.00, 0.00, -0.00, -1.00, 683.9, 415.0)">t</text><text xml:space="preserve" font-family="VarelaRound" font-size="50.0" fill="#FEFFFF" transform="matrix(1.00, 0.00, -0.00, -1.00, 703.1, 415.0)">h</text><text xml:space="preserve" font-family="VarelaRound" font-size="50.0" fill="#FEFFFF" transform="matrix(1.00, 0.00, -0.00, -1.00, 733.6, 415.0)">e</text><text xml:space="preserve" font-family="VarelaRound" font-size="50.0" fill="#FEFFFF" transform="matrix(1.00, 0.00, -0.00, -1.00, 762.1, 415.0)"> </text><text xml:space="preserve" font-family="VarelaRound" font-size="50.0" fill="#FEFFFF" transform="matrix(1.00, 0.00, -0.00, -1.00, 775.1, 415.0)">m</text><text xml:space="preserve" font-family="VarelaRound" font-size="50.0" fill="#FEFFFF" transform="matrix(1.00, 0.00, -0.00, -1.00, 821.1, 415.0)">o</text><text xml:space="preserve" font-family="VarelaRound" font-size="50.0" fill="#FEFFFF" transform="matrix(1.00, 0.00, -0.00, -1.00, 851.5, 415.0)">s</text><text xml:space="preserve" font-family="VarelaRound" font-size="50.0" fill="#FEFFFF" transform="matrix(1.00, 0.00, -0.00, -1.00, 875.2, 415.0)">t</text><text xml:space="preserve" font-family="VarelaRound" font-size="50.0" fill="#FEFFFF" transform="matrix(1.00, 0.00, -0.00, -1.00, 894.5, 415.0)"> </text><text xml:space="preserve" font-family="VarelaRound" font-size="50.0" fill="#FEFFFF" transform="matrix(1.00, 0.00, -0.00, -1.00, 907.5, 415.0)">o</text><text xml:space="preserve" font-family="VarelaRound" font-size="50.0" fill="#FEFFFF" transform="matrix(1.00, 0.00, -0.00, -1.00, 937.6, 415.0)">f</text><text xml:space="preserve" font-family="VarelaRound" font-size="50.0" fill="#FEFFFF" transform="matrix(1.00, 0.00, -0.00, -1.00, 956.6, 415.0)"> </text><text xml:space="preserve" font-family="VarelaRound" font-size="50.0" fill="#FEFFFF" transform="matrix(1.00, 0.00, -0.00, -1.00, 368.0, 355.0)">y</text><text xml:space="preserve" font-family="VarelaRound" font-size="50.0" fill="#FEFFFF" transform="matrix(1.00, 0.00, -0.00, -1.00, 394.4, 355.0)">o</text><text xml:space="preserve" font-family="VarelaRound" font-size="50.0" fill="#FEFFFF" transform="matrix(1.00, 0.00, -0.00, -1.00, 424.8, 355.0)">u</text><text xml:space="preserve" font-family="VarelaRound" font-size="50.0" fill="#FEFFFF" transform="matrix(1.00, 0.00, -0.00, -1.00, 455.3, 355.0)">r</text><text xml:space="preserve" font-family="VarelaRound" font-size="50.0" fill="#FEFFFF" transform="matrix(1.00, 0.00, -0.00, -1.00, 474.6, 355.0)"> </text><text xml:space="preserve" font-family="VarelaRound" font-size="50.0" fill="#FEFFFF" transform="matrix(1.00, 0.00, -0.00, -1.00, 487.6, 355.0)">p</text><text xml:space="preserve" font-family="VarelaRound" font-size="50.0" fill="#FEFFFF" transform="matrix(1.00, 0.00, -0.00, -1.00, 519.2, 355.0)">e</text><text xml:space="preserve" font-family="VarelaRound" font-size="50.0" fill="#FEFFFF" transform="matrix(1.00, 0.00, -0.00, -1.00, 547.7, 355.0)">o</text><text xml:space="preserve" font-family="VarelaRound" font-size="50.0" fill="#FEFFFF" transform="matrix(1.00, 0.00, -0.00, -1.00, 578.1, 355.0)">p</text><text xml:space="preserve" font-family="VarelaRound" font-size="50.0" fill="#FEFFFF" transform="matrix(1.00, 0.00, -0.00, -1.00, 609.7, 355.0)">l</text><text xml:space="preserve" font-family="VarelaRound" font-size="50.0" fill="#FEFFFF" transform="matrix(1.00, 0.00, -0.00, -1.00, 622.9, 355.0)">e</text><text xml:space="preserve" font-family="VarelaRound" font-size="50.0" fill="#FEFFFF" transform="matrix(1.00, 0.00, -0.00, -1.00, 650.5, 355.0)">?</text><image xlink:href="../../D3C67CC6-5C21-4582-AF44-DD77DF0206F5/assets/61C642E5D8F1136BA2248646667ED960.png" width="233.00" height="35.00" transform="matrix(0.94, 0.00, -0.00, -0.97, 787.0, 52.0)"></image></g></svg>