<?xml version="1.0" encoding="UTF-8" standalone="no"?><svg xmlns="http://www.w3.org/2000/svg" xmlns:xlink="http://www.w3.org/1999/xlink" clip-rule="evenodd" stroke-miterlimit="4.00" viewBox="0 0 1024 768"><desc>SVG generated by Keynote</desc><defs><linearGradient id="gradSh1.15" x1="0.0" y1="0.0" x2="100.0" y2="0.0" gradientUnits="userSpaceOnUse" gradientTransform="matrix(0.00, -7.70, -10.26, 0.00, 512.0, 769.0)"><stop offset="0.00000" stop-color="#51A7F9"></stop><stop offset="0.00806" stop-color="#51A7F8"></stop><stop offset="0.30499" stop-color="#3F8CD6"></stop><stop offset="0.31158" stop-color="#3F8CD5"></stop><stop offset="0.44941" stop-color="#377FC6"></stop><stop offset="0.45015" stop-color="#377FC5"></stop><stop offset="0.84751" stop-color="#1F5C98"></stop><stop offset="0.84971" stop-color="#1F5C97"></stop><stop offset="1.00000" stop-color="#164F86"></stop></linearGradient></defs><g transform="matrix(1.00, 0.00, -0.00, -1.00, 0.0, 768.0)"><g><clipPath id="clip-381"><path d="M 0.0 768.0 L 1024.0 768.0 L 1024.0 0.0 L 0.0 0.0 Z M 0.0 768.0 "></path></clipPath><g clip-path="url(#clip-381)"><path d="M 0.0 768.0 L 1024.0 768.0 L 1024.0 0.0 L 0.0 0.0 Z M 0.0 768.0 " fill="url(#gradSh1.15)"></path></g></g><text xml:space="preserve" font-family="VarelaRound" font-size="44.0" fill="#FEFFFF" transform="matrix(1.00, 0.00, -0.00, -1.00, 141.0, 582.0)">“</text><text xml:space="preserve" font-family="VarelaRound" font-size="44.0" fill="#FEFFFF" transform="matrix(1.00, 0.00, -0.00, -1.00, 160.2, 582.0)">O</text><text xml:space="preserve" font-family="VarelaRound" font-size="44.0" fill="#FEFFFF" transform="matrix(1.00, 0.00, -0.00, -1.00, 195.5, 582.0)">n</text><text xml:space="preserve" font-family="VarelaRound" font-size="44.0" fill="#FEFFFF" transform="matrix(1.00, 0.00, -0.00, -1.00, 222.3, 582.0)">c</text><text xml:space="preserve" font-family="VarelaRound" font-size="44.0" fill="#FEFFFF" transform="matrix(1.00, 0.00, -0.00, -1.00, 245.7, 582.0)">e</text><text xml:space="preserve" font-family="VarelaRound" font-size="44.0" fill="#FEFFFF" transform="matrix(1.00, 0.00, -0.00, -1.00, 270.8, 582.0)"> </text><text xml:space="preserve" font-family="VarelaRound" font-size="44.0" fill="#FEFFFF" transform="matrix(1.00, 0.00, -0.00, -1.00, 282.2, 582.0)">y</text><text xml:space="preserve" font-family="VarelaRound" font-size="44.0" fill="#FEFFFF" transform="matrix(1.00, 0.00, -0.00, -1.00, 305.5, 582.0)">o</text><text xml:space="preserve" font-family="VarelaRound" font-size="44.0" fill="#FEFFFF" transform="matrix(1.00, 0.00, -0.00, -1.00, 332.2, 582.0)">u</text><text xml:space="preserve" font-family="VarelaRound" font-size="44.0" fill="#FEFFFF" transform="matrix(1.00, 0.00, -0.00, -1.00, 359.1, 582.0)"> </text><text xml:space="preserve" font-family="VarelaRound" font-size="44.0" fill="#FEFFFF" transform="matrix(1.00, 0.00, -0.00, -1.00, 370.5, 582.0)">h</text><text xml:space="preserve" font-family="VarelaRound" font-size="44.0" fill="#FEFFFF" transform="matrix(1.00, 0.00, -0.00, -1.00, 397.3, 582.0)">a</text><text xml:space="preserve" font-family="VarelaRound" font-size="44.0" fill="#FEFFFF" transform="matrix(1.00, 0.00, -0.00, -1.00, 421.3, 582.0)">v</text><text xml:space="preserve" font-family="VarelaRound" font-size="44.0" fill="#FEFFFF" transform="matrix(1.00, 0.00, -0.00, -1.00, 444.3, 582.0)">e</text><text xml:space="preserve" font-family="VarelaRound" font-size="44.0" fill="#FEFFFF" transform="matrix(1.00, 0.00, -0.00, -1.00, 469.4, 582.0)"> </text><text xml:space="preserve" font-family="VarelaRound" font-size="44.0" fill="#FEFFFF" transform="matrix(1.00, 0.00, -0.00, -1.00, 480.8, 582.0)">t</text><text xml:space="preserve" font-family="VarelaRound" font-size="44.0" fill="#FEFFFF" transform="matrix(1.00, 0.00, -0.00, -1.00, 497.7, 582.0)">h</text><text xml:space="preserve" font-family="VarelaRound" font-size="44.0" fill="#FEFFFF" transform="matrix(1.00, 0.00, -0.00, -1.00, 524.5, 582.0)">e</text><text xml:space="preserve" font-family="VarelaRound" font-size="44.0" fill="#FEFFFF" transform="matrix(1.00, 0.00, -0.00, -1.00, 549.6, 582.0)"> </text><text xml:space="preserve" font-family="VarelaRound" font-size="44.0" fill="#FEFFFF" transform="matrix(1.00, 0.00, -0.00, -1.00, 561.0, 582.0)">m</text><text xml:space="preserve" font-family="VarelaRound" font-size="44.0" fill="#FEFFFF" transform="matrix(1.00, 0.00, -0.00, -1.00, 601.5, 582.0)">e</text><text xml:space="preserve" font-family="VarelaRound" font-size="44.0" fill="#FEFFFF" transform="matrix(1.00, 0.00, -0.00, -1.00, 626.5, 582.0)">t</text><text xml:space="preserve" font-family="VarelaRound" font-size="44.0" fill="#FEFFFF" transform="matrix(1.00, 0.00, -0.00, -1.00, 643.4, 582.0)">r</text><text xml:space="preserve" font-family="VarelaRound" font-size="44.0" fill="#FEFFFF" transform="matrix(1.00, 0.00, -0.00, -1.00, 660.5, 582.0)">i</text><text xml:space="preserve" font-family="VarelaRound" font-size="44.0" fill="#FEFFFF" transform="matrix(1.00, 0.00, -0.00, -1.00, 671.8, 582.0)">c</text><text xml:space="preserve" font-family="VarelaRound" font-size="44.0" fill="#FEFFFF" transform="matrix(1.00, 0.00, -0.00, -1.00, 695.4, 582.0)">s</text><text xml:space="preserve" font-family="VarelaRound" font-size="44.0" fill="#FEFFFF" transform="matrix(1.00, 0.00, -0.00, -1.00, 716.5, 582.0)">,</text><text xml:space="preserve" font-family="VarelaRound" font-size="44.0" fill="#FEFFFF" transform="matrix(1.00, 0.00, -0.00, -1.00, 727.9, 582.0)"> </text><text xml:space="preserve" font-family="VarelaRound" font-size="44.0" fill="#FEFFFF" transform="matrix(1.00, 0.00, -0.00, -1.00, 739.4, 582.0)">y</text><text xml:space="preserve" font-family="VarelaRound" font-size="44.0" fill="#FEFFFF" transform="matrix(1.00, 0.00, -0.00, -1.00, 762.6, 582.0)">o</text><text xml:space="preserve" font-family="VarelaRound" font-size="44.0" fill="#FEFFFF" transform="matrix(1.00, 0.00, -0.00, -1.00, 789.3, 582.0)">u</text><text xml:space="preserve" font-family="VarelaRound" font-size="44.0" fill="#FEFFFF" transform="matrix(1.00, 0.00, -0.00, -1.00, 816.2, 582.0)"> </text><text xml:space="preserve" font-family="VarelaRound" font-size="44.0" fill="#FEFFFF" transform="matrix(1.00, 0.00, -0.00, -1.00, 827.6, 582.0)">c</text><text xml:space="preserve" font-family="VarelaRound" font-size="44.0" fill="#FEFFFF" transform="matrix(1.00, 0.00, -0.00, -1.00, 851.2, 582.0)">a</text><text xml:space="preserve" font-family="VarelaRound" font-size="44.0" fill="#FEFFFF" transform="matrix(1.00, 0.00, -0.00, -1.00, 875.6, 582.0)">n</text><text xml:space="preserve" font-family="VarelaRound" font-size="44.0" fill="#FEFFFF" transform="matrix(1.00, 0.00, -0.00, -1.00, 902.4, 582.0)"> </text><text xml:space="preserve" font-family="VarelaRound" font-size="44.0" fill="#FEFFFF" transform="matrix(1.00, 0.00, -0.00, -1.00, 122.0, 529.0)">m</text><text xml:space="preserve" font-family="VarelaRound" font-size="44.0" fill="#FEFFFF" transform="matrix(1.00, 0.00, -0.00, -1.00, 162.4, 529.0)">a</text><text xml:space="preserve" font-family="VarelaRound" font-size="44.0" fill="#FEFFFF" transform="matrix(1.00, 0.00, -0.00, -1.00, 186.9, 529.0)">k</text><text xml:space="preserve" font-family="VarelaRound" font-size="44.0" fill="#FEFFFF" transform="matrix(1.00, 0.00, -0.00, -1.00, 210.9, 529.0)">e</text><text xml:space="preserve" font-family="VarelaRound" font-size="44.0" fill="#FEFFFF" transform="matrix(1.00, 0.00, -0.00, -1.00, 236.0, 529.0)"> </text><text xml:space="preserve" font-family="VarelaRound" font-size="44.0" fill="#FEFFFF" transform="matrix(1.00, 0.00, -0.00, -1.00, 247.4, 529.0)">d</text><text xml:space="preserve" font-family="VarelaRound" font-size="44.0" fill="#FEFFFF" transform="matrix(1.00, 0.00, -0.00, -1.00, 275.2, 529.0)">e</text><text xml:space="preserve" font-family="VarelaRound" font-size="44.0" fill="#FEFFFF" transform="matrix(1.00, 0.00, -0.00, -1.00, 300.2, 529.0)">c</text><text xml:space="preserve" font-family="VarelaRound" font-size="44.0" fill="#FEFFFF" transform="matrix(1.00, 0.00, -0.00, -1.00, 323.8, 529.0)">i</text><text xml:space="preserve" font-family="VarelaRound" font-size="44.0" fill="#FEFFFF" transform="matrix(1.00, 0.00, -0.00, -1.00, 335.1, 529.0)">s</text><text xml:space="preserve" font-family="VarelaRound" font-size="44.0" fill="#FEFFFF" transform="matrix(1.00, 0.00, -0.00, -1.00, 356.3, 529.0)">i</text><text xml:space="preserve" font-family="VarelaRound" font-size="44.0" fill="#FEFFFF" transform="matrix(1.00, 0.00, -0.00, -1.00, 367.6, 529.0)">o</text><text xml:space="preserve" font-family="VarelaRound" font-size="44.0" fill="#FEFFFF" transform="matrix(1.00, 0.00, -0.00, -1.00, 394.3, 529.0)">n</text><text xml:space="preserve" font-family="VarelaRound" font-size="44.0" fill="#FEFFFF" transform="matrix(1.00, 0.00, -0.00, -1.00, 421.1, 529.0)">s</text><text xml:space="preserve" font-family="VarelaRound" font-size="44.0" fill="#FEFFFF" transform="matrix(1.00, 0.00, -0.00, -1.00, 442.2, 529.0)"> </text><text xml:space="preserve" font-family="VarelaRound" font-size="44.0" fill="#FEFFFF" transform="matrix(1.00, 0.00, -0.00, -1.00, 453.7, 529.0)">b</text><text xml:space="preserve" font-family="VarelaRound" font-size="44.0" fill="#FEFFFF" transform="matrix(1.00, 0.00, -0.00, -1.00, 481.4, 529.0)">a</text><text xml:space="preserve" font-family="VarelaRound" font-size="44.0" fill="#FEFFFF" transform="matrix(1.00, 0.00, -0.00, -1.00, 505.9, 529.0)">s</text><text xml:space="preserve" font-family="VarelaRound" font-size="44.0" fill="#FEFFFF" transform="matrix(1.00, 0.00, -0.00, -1.00, 527.0, 529.0)">e</text><text xml:space="preserve" font-family="VarelaRound" font-size="44.0" fill="#FEFFFF" transform="matrix(1.00, 0.00, -0.00, -1.00, 552.1, 529.0)">d</text><text xml:space="preserve" font-family="VarelaRound" font-size="44.0" fill="#FEFFFF" transform="matrix(1.00, 0.00, -0.00, -1.00, 579.8, 529.0)"> </text><text xml:space="preserve" font-family="VarelaRound" font-size="44.0" fill="#FEFFFF" transform="matrix(1.00, 0.00, -0.00, -1.00, 591.3, 529.0)">o</text><text xml:space="preserve" font-family="VarelaRound" font-size="44.0" fill="#FEFFFF" transform="matrix(1.00, 0.00, -0.00, -1.00, 618.0, 529.0)">n</text><text xml:space="preserve" font-family="VarelaRound" font-size="44.0" fill="#FEFFFF" transform="matrix(1.00, 0.00, -0.00, -1.00, 644.8, 529.0)"> </text><text xml:space="preserve" font-family="VarelaRound" font-size="44.0" fill="#FEFFFF" transform="matrix(1.00, 0.00, -0.00, -1.00, 656.2, 529.0)">d</text><text xml:space="preserve" font-family="VarelaRound" font-size="44.0" fill="#FEFFFF" transform="matrix(1.00, 0.00, -0.00, -1.00, 684.0, 529.0)">a</text><text xml:space="preserve" font-family="VarelaRound" font-size="44.0" fill="#FEFFFF" transform="matrix(1.00, 0.00, -0.00, -1.00, 708.2, 529.0)">t</text><text xml:space="preserve" font-family="VarelaRound" font-size="44.0" fill="#FEFFFF" transform="matrix(1.00, 0.00, -0.00, -1.00, 725.1, 529.0)">a</text><text xml:space="preserve" font-family="VarelaRound" font-size="44.0" fill="#FEFFFF" transform="matrix(1.00, 0.00, -0.00, -1.00, 749.5, 529.0)"> </text><text xml:space="preserve" font-family="VarelaRound" font-size="44.0" fill="#FEFFFF" transform="matrix(1.00, 0.00, -0.00, -1.00, 761.0, 529.0)">a</text><text xml:space="preserve" font-family="VarelaRound" font-size="44.0" fill="#FEFFFF" transform="matrix(1.00, 0.00, -0.00, -1.00, 785.4, 529.0)">n</text><text xml:space="preserve" font-family="VarelaRound" font-size="44.0" fill="#FEFFFF" transform="matrix(1.00, 0.00, -0.00, -1.00, 812.2, 529.0)">d</text><text xml:space="preserve" font-family="VarelaRound" font-size="44.0" fill="#FEFFFF" transform="matrix(1.00, 0.00, -0.00, -1.00, 839.9, 529.0)"> </text><text xml:space="preserve" font-family="VarelaRound" font-size="44.0" fill="#FEFFFF" transform="matrix(1.00, 0.00, -0.00, -1.00, 851.4, 529.0)">n</text><text xml:space="preserve" font-family="VarelaRound" font-size="44.0" fill="#FEFFFF" transform="matrix(1.00, 0.00, -0.00, -1.00, 878.2, 529.0)">o</text><text xml:space="preserve" font-family="VarelaRound" font-size="44.0" fill="#FEFFFF" transform="matrix(1.00, 0.00, -0.00, -1.00, 904.8, 529.0)">t</text><text xml:space="preserve" font-family="VarelaRound" font-size="44.0" fill="#FEFFFF" transform="matrix(1.00, 0.00, -0.00, -1.00, 921.7, 529.0)"> </text><text xml:space="preserve" font-family="VarelaRound" font-size="44.0" fill="#FEFFFF" transform="matrix(1.00, 0.00, -0.00, -1.00, 160.0, 476.0)">b</text><text xml:space="preserve" font-family="VarelaRound" font-size="44.0" fill="#FEFFFF" transform="matrix(1.00, 0.00, -0.00, -1.00, 187.8, 476.0)">a</text><text xml:space="preserve" font-family="VarelaRound" font-size="44.0" fill="#FEFFFF" transform="matrix(1.00, 0.00, -0.00, -1.00, 212.2, 476.0)">s</text><text xml:space="preserve" font-family="VarelaRound" font-size="44.0" fill="#FEFFFF" transform="matrix(1.00, 0.00, -0.00, -1.00, 233.3, 476.0)">e</text><text xml:space="preserve" font-family="VarelaRound" font-size="44.0" fill="#FEFFFF" transform="matrix(1.00, 0.00, -0.00, -1.00, 258.4, 476.0)">d</text><text xml:space="preserve" font-family="VarelaRound" font-size="44.0" fill="#FEFFFF" transform="matrix(1.00, 0.00, -0.00, -1.00, 286.1, 476.0)"> </text><text xml:space="preserve" font-family="VarelaRound" font-size="44.0" fill="#FEFFFF" transform="matrix(1.00, 0.00, -0.00, -1.00, 297.6, 476.0)">o</text><text xml:space="preserve" font-family="VarelaRound" font-size="44.0" fill="#FEFFFF" transform="matrix(1.00, 0.00, -0.00, -1.00, 324.3, 476.0)">n</text><text xml:space="preserve" font-family="VarelaRound" font-size="44.0" fill="#FEFFFF" transform="matrix(1.00, 0.00, -0.00, -1.00, 351.1, 476.0)"> </text><text xml:space="preserve" font-family="VarelaRound" font-size="44.0" fill="#FEFFFF" transform="matrix(1.00, 0.00, -0.00, -1.00, 362.6, 476.0)">f</text><text xml:space="preserve" font-family="VarelaRound" font-size="44.0" fill="#FEFFFF" transform="matrix(1.00, 0.00, -0.00, -1.00, 378.9, 476.0)">e</text><text xml:space="preserve" font-family="VarelaRound" font-size="44.0" fill="#FEFFFF" transform="matrix(1.00, 0.00, -0.00, -1.00, 404.0, 476.0)">e</text><text xml:space="preserve" font-family="VarelaRound" font-size="44.0" fill="#FEFFFF" transform="matrix(1.00, 0.00, -0.00, -1.00, 429.1, 476.0)">l</text><text xml:space="preserve" font-family="VarelaRound" font-size="44.0" fill="#FEFFFF" transform="matrix(1.00, 0.00, -0.00, -1.00, 440.7, 476.0)">i</text><text xml:space="preserve" font-family="VarelaRound" font-size="44.0" fill="#FEFFFF" transform="matrix(1.00, 0.00, -0.00, -1.00, 452.0, 476.0)">n</text><text xml:space="preserve" font-family="VarelaRound" font-size="44.0" fill="#FEFFFF" transform="matrix(1.00, 0.00, -0.00, -1.00, 478.8, 476.0)">g</text><text xml:space="preserve" font-family="VarelaRound" font-size="44.0" fill="#FEFFFF" transform="matrix(1.00, 0.00, -0.00, -1.00, 506.6, 476.0)">s</text><text xml:space="preserve" font-family="VarelaRound" font-size="44.0" fill="#FEFFFF" transform="matrix(1.00, 0.00, -0.00, -1.00, 527.7, 476.0)">.</text><text xml:space="preserve" font-family="VarelaRound" font-size="44.0" fill="#FEFFFF" transform="matrix(1.00, 0.00, -0.00, -1.00, 539.1, 476.0)"> </text><text xml:space="preserve" font-family="VarelaRound" font-size="44.0" fill="#FEFFFF" transform="matrix(1.00, 0.00, -0.00, -1.00, 550.6, 476.0)">Y</text><text xml:space="preserve" font-family="VarelaRound" font-size="44.0" fill="#FEFFFF" transform="matrix(1.00, 0.00, -0.00, -1.00, 575.1, 476.0)">o</text><text xml:space="preserve" font-family="VarelaRound" font-size="44.0" fill="#FEFFFF" transform="matrix(1.00, 0.00, -0.00, -1.00, 601.9, 476.0)">u</text><text xml:space="preserve" font-family="VarelaRound" font-size="44.0" fill="#FEFFFF" transform="matrix(1.00, 0.00, -0.00, -1.00, 628.7, 476.0)"> </text><text xml:space="preserve" font-family="VarelaRound" font-size="44.0" fill="#FEFFFF" transform="matrix(1.00, 0.00, -0.00, -1.00, 640.2, 476.0)">a</text><text xml:space="preserve" font-family="VarelaRound" font-size="44.0" fill="#FEFFFF" transform="matrix(1.00, 0.00, -0.00, -1.00, 664.6, 476.0)">r</text><text xml:space="preserve" font-family="VarelaRound" font-size="44.0" fill="#FEFFFF" transform="matrix(1.00, 0.00, -0.00, -1.00, 681.6, 476.0)">e</text><text xml:space="preserve" font-family="VarelaRound" font-size="44.0" fill="#FEFFFF" transform="matrix(1.00, 0.00, -0.00, -1.00, 706.7, 476.0)"> </text><text xml:space="preserve" font-family="VarelaRound" font-size="44.0" fill="#FEFFFF" transform="matrix(1.00, 0.00, -0.00, -1.00, 718.1, 476.0)">a</text><text xml:space="preserve" font-family="VarelaRound" font-size="44.0" fill="#FEFFFF" transform="matrix(1.00, 0.00, -0.00, -1.00, 742.6, 476.0)"> </text><text xml:space="preserve" font-family="VarelaRound" font-size="44.0" fill="#FEFFFF" transform="matrix(1.00, 0.00, -0.00, -1.00, 754.0, 476.0)">b</text><text xml:space="preserve" font-family="VarelaRound" font-size="44.0" fill="#FEFFFF" transform="matrix(1.00, 0.00, -0.00, -1.00, 781.8, 476.0)">e</text><text xml:space="preserve" font-family="VarelaRound" font-size="44.0" fill="#FEFFFF" transform="matrix(1.00, 0.00, -0.00, -1.00, 806.8, 476.0)">t</text><text xml:space="preserve" font-family="VarelaRound" font-size="44.0" fill="#FEFFFF" transform="matrix(1.00, 0.00, -0.00, -1.00, 824.0, 476.0)">t</text><text xml:space="preserve" font-family="VarelaRound" font-size="44.0" fill="#FEFFFF" transform="matrix(1.00, 0.00, -0.00, -1.00, 840.9, 476.0)">e</text><text xml:space="preserve" font-family="VarelaRound" font-size="44.0" fill="#FEFFFF" transform="matrix(1.00, 0.00, -0.00, -1.00, 866.0, 476.0)">r</text><text xml:space="preserve" font-family="VarelaRound" font-size="44.0" fill="#FEFFFF" transform="matrix(1.00, 0.00, -0.00, -1.00, 883.1, 476.0)"> </text><text xml:space="preserve" font-family="VarelaRound" font-size="44.0" fill="#FEFFFF" transform="matrix(1.00, 0.00, -0.00, -1.00, 104.0, 423.0)">o</text><text xml:space="preserve" font-family="VarelaRound" font-size="44.0" fill="#FEFFFF" transform="matrix(1.00, 0.00, -0.00, -1.00, 130.8, 423.0)">r</text><text xml:space="preserve" font-family="VarelaRound" font-size="44.0" fill="#FEFFFF" transform="matrix(1.00, 0.00, -0.00, -1.00, 147.8, 423.0)">g</text><text xml:space="preserve" font-family="VarelaRound" font-size="44.0" fill="#FEFFFF" transform="matrix(1.00, 0.00, -0.00, -1.00, 175.5, 423.0)">a</text><text xml:space="preserve" font-family="VarelaRound" font-size="44.0" fill="#FEFFFF" transform="matrix(1.00, 0.00, -0.00, -1.00, 200.0, 423.0)">n</text><text xml:space="preserve" font-family="VarelaRound" font-size="44.0" fill="#FEFFFF" transform="matrix(1.00, 0.00, -0.00, -1.00, 226.8, 423.0)">i</text><text xml:space="preserve" font-family="VarelaRound" font-size="44.0" fill="#FEFFFF" transform="matrix(1.00, 0.00, -0.00, -1.00, 238.1, 423.0)">z</text><text xml:space="preserve" font-family="VarelaRound" font-size="44.0" fill="#FEFFFF" transform="matrix(1.00, 0.00, -0.00, -1.00, 260.0, 423.0)">a</text><text xml:space="preserve" font-family="VarelaRound" font-size="44.0" fill="#FEFFFF" transform="matrix(1.00, 0.00, -0.00, -1.00, 284.2, 423.0)">t</text><text xml:space="preserve" font-family="VarelaRound" font-size="44.0" fill="#FEFFFF" transform="matrix(1.00, 0.00, -0.00, -1.00, 301.1, 423.0)">i</text><text xml:space="preserve" font-family="VarelaRound" font-size="44.0" fill="#FEFFFF" transform="matrix(1.00, 0.00, -0.00, -1.00, 312.4, 423.0)">o</text><text xml:space="preserve" font-family="VarelaRound" font-size="44.0" fill="#FEFFFF" transform="matrix(1.00, 0.00, -0.00, -1.00, 339.2, 423.0)">n</text><text xml:space="preserve" font-family="VarelaRound" font-size="44.0" fill="#FEFFFF" transform="matrix(1.00, 0.00, -0.00, -1.00, 366.0, 423.0)"> </text><text xml:space="preserve" font-family="VarelaRound" font-size="44.0" fill="#FEFFFF" transform="matrix(1.00, 0.00, -0.00, -1.00, 377.4, 423.0)">i</text><text xml:space="preserve" font-family="VarelaRound" font-size="44.0" fill="#FEFFFF" transform="matrix(1.00, 0.00, -0.00, -1.00, 388.7, 423.0)">f</text><text xml:space="preserve" font-family="VarelaRound" font-size="44.0" fill="#FEFFFF" transform="matrix(1.00, 0.00, -0.00, -1.00, 405.4, 423.0)"> </text><text xml:space="preserve" font-family="VarelaRound" font-size="44.0" fill="#FEFFFF" transform="matrix(1.00, 0.00, -0.00, -1.00, 416.9, 423.0)">y</text><text xml:space="preserve" font-family="VarelaRound" font-size="44.0" fill="#FEFFFF" transform="matrix(1.00, 0.00, -0.00, -1.00, 440.1, 423.0)">o</text><text xml:space="preserve" font-family="VarelaRound" font-size="44.0" fill="#FEFFFF" transform="matrix(1.00, 0.00, -0.00, -1.00, 466.9, 423.0)">u</text><text xml:space="preserve" font-family="VarelaRound" font-size="44.0" fill="#FEFFFF" transform="matrix(1.00, 0.00, -0.00, -1.00, 493.7, 423.0)"> </text><text xml:space="preserve" font-family="VarelaRound" font-size="44.0" fill="#FEFFFF" transform="matrix(1.00, 0.00, -0.00, -1.00, 505.1, 423.0)">h</text><text xml:space="preserve" font-family="VarelaRound" font-size="44.0" fill="#FEFFFF" transform="matrix(1.00, 0.00, -0.00, -1.00, 531.9, 423.0)">a</text><text xml:space="preserve" font-family="VarelaRound" font-size="44.0" fill="#FEFFFF" transform="matrix(1.00, 0.00, -0.00, -1.00, 555.9, 423.0)">v</text><text xml:space="preserve" font-family="VarelaRound" font-size="44.0" fill="#FEFFFF" transform="matrix(1.00, 0.00, -0.00, -1.00, 578.9, 423.0)">e</text><text xml:space="preserve" font-family="VarelaRound" font-size="44.0" fill="#FEFFFF" transform="matrix(1.00, 0.00, -0.00, -1.00, 604.0, 423.0)"> </text><text xml:space="preserve" font-family="VarelaRound" font-size="44.0" fill="#FEFFFF" transform="matrix(1.00, 0.00, -0.00, -1.00, 615.5, 423.0)">d</text><text xml:space="preserve" font-family="VarelaRound" font-size="44.0" fill="#FEFFFF" transform="matrix(1.00, 0.00, -0.00, -1.00, 643.2, 423.0)">a</text><text xml:space="preserve" font-family="VarelaRound" font-size="44.0" fill="#FEFFFF" transform="matrix(1.00, 0.00, -0.00, -1.00, 667.4, 423.0)">t</text><text xml:space="preserve" font-family="VarelaRound" font-size="44.0" fill="#FEFFFF" transform="matrix(1.00, 0.00, -0.00, -1.00, 684.3, 423.0)">a</text><text xml:space="preserve" font-family="VarelaRound" font-size="44.0" fill="#FEFFFF" transform="matrix(1.00, 0.00, -0.00, -1.00, 708.7, 423.0)"> </text><text xml:space="preserve" font-family="VarelaRound" font-size="44.0" fill="#FEFFFF" transform="matrix(1.00, 0.00, -0.00, -1.00, 720.2, 423.0)">t</text><text xml:space="preserve" font-family="VarelaRound" font-size="44.0" fill="#FEFFFF" transform="matrix(1.00, 0.00, -0.00, -1.00, 737.1, 423.0)">o</text><text xml:space="preserve" font-family="VarelaRound" font-size="44.0" fill="#FEFFFF" transform="matrix(1.00, 0.00, -0.00, -1.00, 763.8, 423.0)"> </text><text xml:space="preserve" font-family="VarelaRound" font-size="44.0" fill="#FEFFFF" transform="matrix(1.00, 0.00, -0.00, -1.00, 775.3, 423.0)">s</text><text xml:space="preserve" font-family="VarelaRound" font-size="44.0" fill="#FEFFFF" transform="matrix(1.00, 0.00, -0.00, -1.00, 796.4, 423.0)">u</text><text xml:space="preserve" font-family="VarelaRound" font-size="44.0" fill="#FEFFFF" transform="matrix(1.00, 0.00, -0.00, -1.00, 823.2, 423.0)">p</text><text xml:space="preserve" font-family="VarelaRound" font-size="44.0" fill="#FEFFFF" transform="matrix(1.00, 0.00, -0.00, -1.00, 851.0, 423.0)">p</text><text xml:space="preserve" font-family="VarelaRound" font-size="44.0" fill="#FEFFFF" transform="matrix(1.00, 0.00, -0.00, -1.00, 878.8, 423.0)">o</text><text xml:space="preserve" font-family="VarelaRound" font-size="44.0" fill="#FEFFFF" transform="matrix(1.00, 0.00, -0.00, -1.00, 905.5, 423.0)">r</text><text xml:space="preserve" font-family="VarelaRound" font-size="44.0" fill="#FEFFFF" transform="matrix(1.00, 0.00, -0.00, -1.00, 922.5, 423.0)">t</text><text xml:space="preserve" font-family="VarelaRound" font-size="44.0" fill="#FEFFFF" transform="matrix(1.00, 0.00, -0.00, -1.00, 939.4, 423.0)"> </text><text xml:space="preserve" font-family="VarelaRound" font-size="44.0" fill="#FEFFFF" transform="matrix(1.00, 0.00, -0.00, -1.00, 263.0, 370.0)">y</text><text xml:space="preserve" font-family="VarelaRound" font-size="44.0" fill="#FEFFFF" transform="matrix(1.00, 0.00, -0.00, -1.00, 286.2, 370.0)">o</text><text xml:space="preserve" font-family="VarelaRound" font-size="44.0" fill="#FEFFFF" transform="matrix(1.00, 0.00, -0.00, -1.00, 313.0, 370.0)">u</text><text xml:space="preserve" font-family="VarelaRound" font-size="44.0" fill="#FEFFFF" transform="matrix(1.00, 0.00, -0.00, -1.00, 339.8, 370.0)">r</text><text xml:space="preserve" font-family="VarelaRound" font-size="44.0" fill="#FEFFFF" transform="matrix(1.00, 0.00, -0.00, -1.00, 356.9, 370.0)"> </text><text xml:space="preserve" font-family="VarelaRound" font-size="44.0" fill="#FEFFFF" transform="matrix(1.00, 0.00, -0.00, -1.00, 368.3, 370.0)">b</text><text xml:space="preserve" font-family="VarelaRound" font-size="44.0" fill="#FEFFFF" transform="matrix(1.00, 0.00, -0.00, -1.00, 396.1, 370.0)">u</text><text xml:space="preserve" font-family="VarelaRound" font-size="44.0" fill="#FEFFFF" transform="matrix(1.00, 0.00, -0.00, -1.00, 422.9, 370.0)">s</text><text xml:space="preserve" font-family="VarelaRound" font-size="44.0" fill="#FEFFFF" transform="matrix(1.00, 0.00, -0.00, -1.00, 444.0, 370.0)">i</text><text xml:space="preserve" font-family="VarelaRound" font-size="44.0" fill="#FEFFFF" transform="matrix(1.00, 0.00, -0.00, -1.00, 455.3, 370.0)">n</text><text xml:space="preserve" font-family="VarelaRound" font-size="44.0" fill="#FEFFFF" transform="matrix(1.00, 0.00, -0.00, -1.00, 482.1, 370.0)">e</text><text xml:space="preserve" font-family="VarelaRound" font-size="44.0" fill="#FEFFFF" transform="matrix(1.00, 0.00, -0.00, -1.00, 507.2, 370.0)">s</text><text xml:space="preserve" font-family="VarelaRound" font-size="44.0" fill="#FEFFFF" transform="matrix(1.00, 0.00, -0.00, -1.00, 528.3, 370.0)">s</text><text xml:space="preserve" font-family="VarelaRound" font-size="44.0" fill="#FEFFFF" transform="matrix(1.00, 0.00, -0.00, -1.00, 549.4, 370.0)"> </text><text xml:space="preserve" font-family="VarelaRound" font-size="44.0" fill="#FEFFFF" transform="matrix(1.00, 0.00, -0.00, -1.00, 560.9, 370.0)">d</text><text xml:space="preserve" font-family="VarelaRound" font-size="44.0" fill="#FEFFFF" transform="matrix(1.00, 0.00, -0.00, -1.00, 588.6, 370.0)">e</text><text xml:space="preserve" font-family="VarelaRound" font-size="44.0" fill="#FEFFFF" transform="matrix(1.00, 0.00, -0.00, -1.00, 613.7, 370.0)">c</text><text xml:space="preserve" font-family="VarelaRound" font-size="44.0" fill="#FEFFFF" transform="matrix(1.00, 0.00, -0.00, -1.00, 637.3, 370.0)">i</text><text xml:space="preserve" font-family="VarelaRound" font-size="44.0" fill="#FEFFFF" transform="matrix(1.00, 0.00, -0.00, -1.00, 648.6, 370.0)">s</text><text xml:space="preserve" font-family="VarelaRound" font-size="44.0" fill="#FEFFFF" transform="matrix(1.00, 0.00, -0.00, -1.00, 669.7, 370.0)">i</text><text xml:space="preserve" font-family="VarelaRound" font-size="44.0" fill="#FEFFFF" transform="matrix(1.00, 0.00, -0.00, -1.00, 681.0, 370.0)">o</text><text xml:space="preserve" font-family="VarelaRound" font-size="44.0" fill="#FEFFFF" transform="matrix(1.00, 0.00, -0.00, -1.00, 707.8, 370.0)">n</text><text xml:space="preserve" font-family="VarelaRound" font-size="44.0" fill="#FEFFFF" transform="matrix(1.00, 0.00, -0.00, -1.00, 734.6, 370.0)">s</text><text xml:space="preserve" font-family="VarelaRound" font-size="44.0" fill="#FEFFFF" transform="matrix(1.00, 0.00, -0.00, -1.00, 755.7, 370.0)">.</text><text xml:space="preserve" font-family="VarelaRound" font-size="44.0" fill="#FEFFFF" transform="matrix(1.00, 0.00, -0.00, -1.00, 761.7, 370.0)">”</text><text xml:space="preserve" font-family="VarelaRound" font-size="44.0" fill="#FEFFFF" transform="matrix(1.00, 0.00, -0.00, -1.00, 780.1, 370.0)"> </text><text xml:space="preserve" font-family="VarelaRound" font-size="44.0" fill="#FEFFFF" transform="matrix(1.00, 0.00, -0.00, -1.00, 522.0, 317.0)"> </text><text xml:space="preserve" font-family="VarelaRound" font-size="44.0" fill="#FEFFFF" transform="matrix(1.00, 0.00, -0.00, -1.00, 533.4, 317.0)"> </text><text xml:space="preserve" font-family="VarelaRound" font-size="44.0" fill="#FEFFFF" transform="matrix(1.00, 0.00, -0.00, -1.00, 180.0, 264.0)">—</text><text xml:space="preserve" font-family="VarelaRound" font-size="44.0" fill="#FEFFFF" transform="matrix(1.00, 0.00, -0.00, -1.00, 219.2, 264.0)"> </text><text xml:space="preserve" font-family="VarelaRound" font-size="44.0" fill="#FEFFFF" transform="matrix(1.00, 0.00, -0.00, -1.00, 230.6, 264.0)">S</text><text xml:space="preserve" font-family="VarelaRound" font-size="44.0" fill="#FEFFFF" transform="matrix(1.00, 0.00, -0.00, -1.00, 257.7, 264.0)">a</text><text xml:space="preserve" font-family="VarelaRound" font-size="44.0" fill="#FEFFFF" transform="matrix(1.00, 0.00, -0.00, -1.00, 282.2, 264.0)">r</text><text xml:space="preserve" font-family="VarelaRound" font-size="44.0" fill="#FEFFFF" transform="matrix(1.00, 0.00, -0.00, -1.00, 299.2, 264.0)">a</text><text xml:space="preserve" font-family="VarelaRound" font-size="44.0" fill="#FEFFFF" transform="matrix(1.00, 0.00, -0.00, -1.00, 323.6, 264.0)"> </text><text xml:space="preserve" font-family="VarelaRound" font-size="44.0" fill="#FEFFFF" transform="matrix(1.00, 0.00, -0.00, -1.00, 335.1, 264.0)">Z</text><text xml:space="preserve" font-family="VarelaRound" font-size="44.0" fill="#FEFFFF" transform="matrix(1.00, 0.00, -0.00, -1.00, 363.1, 264.0)">a</text><text xml:space="preserve" font-family="VarelaRound" font-size="44.0" fill="#FEFFFF" transform="matrix(1.00, 0.00, -0.00, -1.00, 387.5, 264.0)">p</text><text xml:space="preserve" font-family="VarelaRound" font-size="44.0" fill="#FEFFFF" transform="matrix(1.00, 0.00, -0.00, -1.00, 415.3, 264.0)">p</text><text xml:space="preserve" font-family="VarelaRound" font-size="44.0" fill="#FEFFFF" transform="matrix(1.00, 0.00, -0.00, -1.00, 443.1, 264.0)">i</text><text xml:space="preserve" font-family="VarelaRound" font-size="44.0" fill="#FEFFFF" transform="matrix(1.00, 0.00, -0.00, -1.00, 454.4, 264.0)">,</text><text xml:space="preserve" font-family="VarelaRound" font-size="44.0" fill="#FEFFFF" transform="matrix(1.00, 0.00, -0.00, -1.00, 465.8, 264.0)"> </text><text xml:space="preserve" font-family="VarelaRound" font-size="44.0" fill="#FEFFFF" transform="matrix(1.00, 0.00, -0.00, -1.00, 477.3, 264.0)">D</text><text xml:space="preserve" font-family="VarelaRound" font-size="44.0" fill="#FEFFFF" transform="matrix(1.00, 0.00, -0.00, -1.00, 509.8, 264.0)">i</text><text xml:space="preserve" font-family="VarelaRound" font-size="44.0" fill="#FEFFFF" transform="matrix(1.00, 0.00, -0.00, -1.00, 521.1, 264.0)">r</text><text xml:space="preserve" font-family="VarelaRound" font-size="44.0" fill="#FEFFFF" transform="matrix(1.00, 0.00, -0.00, -1.00, 538.2, 264.0)">e</text><text xml:space="preserve" font-family="VarelaRound" font-size="44.0" fill="#FEFFFF" transform="matrix(1.00, 0.00, -0.00, -1.00, 563.2, 264.0)">c</text><text xml:space="preserve" font-family="VarelaRound" font-size="44.0" fill="#FEFFFF" transform="matrix(1.00, 0.00, -0.00, -1.00, 586.8, 264.0)">t</text><text xml:space="preserve" font-family="VarelaRound" font-size="44.0" fill="#FEFFFF" transform="matrix(1.00, 0.00, -0.00, -1.00, 603.7, 264.0)">o</text><text xml:space="preserve" font-family="VarelaRound" font-size="44.0" fill="#FEFFFF" transform="matrix(1.00, 0.00, -0.00, -1.00, 630.5, 264.0)">r</text><text xml:space="preserve" font-family="VarelaRound" font-size="44.0" fill="#FEFFFF" transform="matrix(1.00, 0.00, -0.00, -1.00, 647.5, 264.0)"> </text><text xml:space="preserve" font-family="VarelaRound" font-size="44.0" fill="#FEFFFF" transform="matrix(1.00, 0.00, -0.00, -1.00, 658.9, 264.0)">o</text><text xml:space="preserve" font-family="VarelaRound" font-size="44.0" fill="#FEFFFF" transform="matrix(1.00, 0.00, -0.00, -1.00, 685.5, 264.0)">f</text><text xml:space="preserve" font-family="VarelaRound" font-size="44.0" fill="#FEFFFF" transform="matrix(1.00, 0.00, -0.00, -1.00, 702.2, 264.0)"> </text><text xml:space="preserve" font-family="VarelaRound" font-size="44.0" fill="#FEFFFF" transform="matrix(1.00, 0.00, -0.00, -1.00, 713.6, 264.0)">H</text><text xml:space="preserve" font-family="VarelaRound" font-size="44.0" fill="#FEFFFF" transform="matrix(1.00, 0.00, -0.00, -1.00, 746.3, 264.0)">u</text><text xml:space="preserve" font-family="VarelaRound" font-size="44.0" fill="#FEFFFF" transform="matrix(1.00, 0.00, -0.00, -1.00, 773.1, 264.0)">m</text><text xml:space="preserve" font-family="VarelaRound" font-size="44.0" fill="#FEFFFF" transform="matrix(1.00, 0.00, -0.00, -1.00, 813.6, 264.0)">a</text><text xml:space="preserve" font-family="VarelaRound" font-size="44.0" fill="#FEFFFF" transform="matrix(1.00, 0.00, -0.00, -1.00, 838.0, 264.0)">n</text><text xml:space="preserve" font-family="VarelaRound" font-size="44.0" fill="#FEFFFF" transform="matrix(1.00, 0.00, -0.00, -1.00, 864.8, 264.0)"> </text><text xml:space="preserve" font-family="VarelaRound" font-size="44.0" fill="#FEFFFF" transform="matrix(1.00, 0.00, -0.00, -1.00, 258.0, 211.0)">R</text><text xml:space="preserve" font-family="VarelaRound" font-size="44.0" fill="#FEFFFF" transform="matrix(1.00, 0.00, -0.00, -1.00, 289.3, 211.0)">e</text><text xml:space="preserve" font-family="VarelaRound" font-size="44.0" fill="#FEFFFF" transform="matrix(1.00, 0.00, -0.00, -1.00, 314.4, 211.0)">s</text><text xml:space="preserve" font-family="VarelaRound" font-size="44.0" fill="#FEFFFF" transform="matrix(1.00, 0.00, -0.00, -1.00, 335.5, 211.0)">o</text><text xml:space="preserve" font-family="VarelaRound" font-size="44.0" fill="#FEFFFF" transform="matrix(1.00, 0.00, -0.00, -1.00, 362.3, 211.0)">u</text><text xml:space="preserve" font-family="VarelaRound" font-size="44.0" fill="#FEFFFF" transform="matrix(1.00, 0.00, -0.00, -1.00, 389.1, 211.0)">r</text><text xml:space="preserve" font-family="VarelaRound" font-size="44.0" fill="#FEFFFF" transform="matrix(1.00, 0.00, -0.00, -1.00, 406.1, 211.0)">c</text><text xml:space="preserve" font-family="VarelaRound" font-size="44.0" fill="#FEFFFF" transform="matrix(1.00, 0.00, -0.00, -1.00, 429.6, 211.0)">e</text><text xml:space="preserve" font-family="VarelaRound" font-size="44.0" fill="#FEFFFF" transform="matrix(1.00, 0.00, -0.00, -1.00, 454.6, 211.0)">s</text><text xml:space="preserve" font-family="VarelaRound" font-size="44.0" fill="#FEFFFF" transform="matrix(1.00, 0.00, -0.00, -1.00, 475.8, 211.0)">,</text><text xml:space="preserve" font-family="VarelaRound" font-size="44.0" fill="#FEFFFF" transform="matrix(1.00, 0.00, -0.00, -1.00, 487.2, 211.0)"> </text><text xml:space="preserve" font-family="VarelaRound" font-size="44.0" fill="#FEFFFF" transform="matrix(1.00, 0.00, -0.00, -1.00, 498.6, 211.0)">E</text><text xml:space="preserve" font-family="VarelaRound" font-size="44.0" fill="#FEFFFF" transform="matrix(1.00, 0.00, -0.00, -1.00, 526.7, 211.0)">l</text><text xml:space="preserve" font-family="VarelaRound" font-size="44.0" fill="#FEFFFF" transform="matrix(1.00, 0.00, -0.00, -1.00, 538.4, 211.0)">l</text><text xml:space="preserve" font-family="VarelaRound" font-size="44.0" fill="#FEFFFF" transform="matrix(1.00, 0.00, -0.00, -1.00, 550.0, 211.0)">i</text><text xml:space="preserve" font-family="VarelaRound" font-size="44.0" fill="#FEFFFF" transform="matrix(1.00, 0.00, -0.00, -1.00, 561.3, 211.0)">s</text><text xml:space="preserve" font-family="VarelaRound" font-size="44.0" fill="#FEFFFF" transform="matrix(1.00, 0.00, -0.00, -1.00, 582.5, 211.0)"> </text><text xml:space="preserve" font-family="VarelaRound" font-size="44.0" fill="#FEFFFF" transform="matrix(1.00, 0.00, -0.00, -1.00, 593.9, 211.0)">M</text><text xml:space="preserve" font-family="VarelaRound" font-size="44.0" fill="#FEFFFF" transform="matrix(1.00, 0.00, -0.00, -1.00, 635.8, 211.0)">e</text><text xml:space="preserve" font-family="VarelaRound" font-size="44.0" fill="#FEFFFF" transform="matrix(1.00, 0.00, -0.00, -1.00, 660.9, 211.0)">d</text><text xml:space="preserve" font-family="VarelaRound" font-size="44.0" fill="#FEFFFF" transform="matrix(1.00, 0.00, -0.00, -1.00, 688.6, 211.0)">i</text><text xml:space="preserve" font-family="VarelaRound" font-size="44.0" fill="#FEFFFF" transform="matrix(1.00, 0.00, -0.00, -1.00, 699.9, 211.0)">c</text><text xml:space="preserve" font-family="VarelaRound" font-size="44.0" fill="#FEFFFF" transform="matrix(1.00, 0.00, -0.00, -1.00, 723.5, 211.0)">i</text><text xml:space="preserve" font-family="VarelaRound" font-size="44.0" fill="#FEFFFF" transform="matrix(1.00, 0.00, -0.00, -1.00, 734.8, 211.0)">n</text><text xml:space="preserve" font-family="VarelaRound" font-size="44.0" fill="#FEFFFF" transform="matrix(1.00, 0.00, -0.00, -1.00, 761.6, 211.0)">e</text><text xml:space="preserve" font-family="VarelaRound" font-size="44.0" fill="#FEFFFF" transform="matrix(1.00, 0.00, -0.00, -1.00, 786.7, 211.0)"> </text><text xml:space="preserve" font-family="VarelaRound" font-size="44.0" fill="#FEFFFF" transform="matrix(1.00, 0.00, -0.00, -1.00, 798.1, 211.0)"> </text><g><clipPath id="clip-382"><path d="M 552.8 28.9 L 785.3 28.9 L 785.3 64.6 L 552.8 64.6 Z M 552.8 28.9 "></path></clipPath><g clip-path="url(#clip-382)"><image xlink:href="../../D3C67CC6-5C21-4582-AF44-DD77DF0206F5/assets/61C642E5D8F1136BA2248646667ED960.png" width="233.00" height="35.00" transform="matrix(1.00, 0.00, -0.00, -1.03, 553.0, 65.0)"></image></g></g><g><clipPath id="clip-383"><path d="M 814.6 10.7 L 1022.4 10.7 L 1022.4 82.8 L 814.6 82.8 Z M 814.6 10.7 "></path></clipPath><g clip-path="url(#clip-383)"><text xml:space="preserve" font-family="VarelaRound" font-size="40.0" fill="#FEFFFF" transform="matrix(1.00, 0.00, -0.00, -1.00, 827.0, 34.0)">B</text><text xml:space="preserve" font-family="VarelaRound" font-size="40.0" fill="#FEFFFF" transform="matrix(1.00, 0.00, -0.00, -1.00, 854.7, 34.0)">l</text><text xml:space="preserve" font-family="VarelaRound" font-size="40.0" fill="#FEFFFF" transform="matrix(1.00, 0.00, -0.00, -1.00, 865.3, 34.0)">u</text><text xml:space="preserve" font-family="VarelaRound" font-size="40.0" fill="#FEFFFF" transform="matrix(1.00, 0.00, -0.00, -1.00, 889.7, 34.0)">e</text><text xml:space="preserve" font-family="VarelaRound" font-size="40.0" fill="#FEFFFF" transform="matrix(1.00, 0.00, -0.00, -1.00, 912.5, 34.0)">p</text><text xml:space="preserve" font-family="VarelaRound" font-size="40.0" fill="#FEFFFF" transform="matrix(1.00, 0.00, -0.00, -1.00, 937.8, 34.0)">r</text><text xml:space="preserve" font-family="VarelaRound" font-size="40.0" fill="#FEFFFF" transform="matrix(1.00, 0.00, -0.00, -1.00, 953.2, 34.0)">i</text><text xml:space="preserve" font-family="VarelaRound" font-size="40.0" fill="#FEFFFF" transform="matrix(1.00, 0.00, -0.00, -1.00, 963.5, 34.0)">n</text><text xml:space="preserve" font-family="VarelaRound" font-size="40.0" fill="#FEFFFF" transform="matrix(1.00, 0.00, -0.00, -1.00, 987.7, 34.0)">t</text></g></g><g><clipPath id="clip-384"><path d="M 805.3 4.8 L 805.3 88.7 L 808.3 88.7 L 808.3 4.8 Z M 805.3 4.8 "></path></clipPath><g clip-path="url(#clip-384)"><g opacity="0.30"><g><clipPath id="clip-385"><path d="M 806.0 5.0 L 808.0 5.0 L 808.0 88.0 L 806.0 88.0 Z M 806.0 5.0 "></path></clipPath><g clip-path="url(#clip-385)"><path d="M 0.0 0.0 L 81.9 0.0 " fill="none" stroke="#FEFFFF" stroke-width="1.00" transform="matrix(0.00, 1.00, 1.00, 0.00, 806.8, 5.8)"></path></g></g></g></g></g></g></svg>